<mxfile host="app.diagrams.net" modified="2022-09-30T08:23:11.396Z" agent="5.0 (Windows NT 10.0; Win64; x64) AppleWebKit/537.36 (KHTML, like Gecko) Chrome/106.0.0.0 Safari/537.36" etag="HpAsR8JfB8V_xDd8tYPC" version="20.3.7" type="github">
  <diagram id="R2lEEEUBdFMjLlhIrx00" name="Page-1">
    <mxGraphModel dx="2370" dy="1340" grid="1" gridSize="3.937" guides="1" tooltips="1" connect="1" arrows="1" fold="1" page="1" pageScale="1" pageWidth="2339" pageHeight="3300" math="0" shadow="0" extFonts="Permanent Marker^https://fonts.googleapis.com/css?family=Permanent+Marker">
      <root>
        <mxCell id="0" />
        <mxCell id="1" parent="0" />
        <mxCell id="bOlvTl43doBLw3R69mOg-1" value="" style="rounded=0;whiteSpace=wrap;html=1;fillColor=none;" parent="1" vertex="1">
          <mxGeometry x="49.00000000000006" y="20.000000000000007" width="2290" height="3250" as="geometry" />
        </mxCell>
        <mxCell id="DZu1GaJRUpWl5_9RTm3t-158" value="" style="rounded=0;whiteSpace=wrap;html=1;labelBackgroundColor=none;fontSize=20;fillColor=none;" parent="1" vertex="1">
          <mxGeometry x="62.980000000000004" y="452.76" width="2251.97" height="2228.34" as="geometry" />
        </mxCell>
        <mxCell id="bGR2ncDxH5QGCtKRdaTj-23" value="" style="shape=folder;fontStyle=1;spacingTop=10;tabWidth=169;tabHeight=32;tabPosition=left;html=1;autosize=1;fillColor=none;strokeColor=#B5739D;strokeWidth=3;" parent="1" vertex="1">
          <mxGeometry x="1519.687" y="1999.1269999999997" width="783.47" height="330.71" as="geometry" />
        </mxCell>
        <mxCell id="bGR2ncDxH5QGCtKRdaTj-20" value="" style="shape=folder;fontStyle=1;spacingTop=10;tabWidth=91;tabHeight=28;tabPosition=left;html=1;fillColor=none;strokeColor=#6c8ebf;strokeWidth=3;" parent="1" vertex="1">
          <mxGeometry x="1318.9" y="570.86" width="318.89" height="212.6" as="geometry" />
        </mxCell>
        <mxCell id="bGR2ncDxH5QGCtKRdaTj-21" value="" style="shape=folder;fontStyle=1;spacingTop=10;tabWidth=110;tabHeight=28;tabPosition=left;html=1;strokeWidth=3;strokeColor=#82b366;fillColor=none;" parent="1" vertex="1">
          <mxGeometry x="1712.6" y="476.38" width="582.67" height="515.75" as="geometry" />
        </mxCell>
        <mxCell id="bGR2ncDxH5QGCtKRdaTj-22" value="" style="shape=folder;fontStyle=1;spacingTop=10;tabWidth=193;tabHeight=31;tabPosition=left;html=1;gradientColor=none;fillColor=none;strokeColor=#FFD966;strokeWidth=3;" parent="1" vertex="1">
          <mxGeometry x="1322.83" y="1090.55" width="984.25" height="889.76" as="geometry" />
        </mxCell>
        <mxCell id="bGR2ncDxH5QGCtKRdaTj-19" value="" style="shape=folder;fontStyle=1;spacingTop=10;tabWidth=157;tabHeight=28;tabPosition=left;html=1;fillColor=none;strokeWidth=3;strokeColor=#7EA6E0;" parent="1" vertex="1">
          <mxGeometry x="106.3" y="476.38" width="834.64" height="488.18" as="geometry" />
        </mxCell>
        <mxCell id="bGR2ncDxH5QGCtKRdaTj-18" value="" style="shape=folder;fontStyle=1;spacingTop=10;tabWidth=110;tabHeight=20;tabPosition=left;html=1;fillColor=none;strokeWidth=3;strokeColor=#FFD966;" parent="1" vertex="1">
          <mxGeometry x="66.93" y="972.44" width="866.14" height="464.56" as="geometry" />
        </mxCell>
        <mxCell id="bGR2ncDxH5QGCtKRdaTj-16" value="" style="shape=folder;fontStyle=1;spacingTop=10;tabWidth=130;tabHeight=24;tabPosition=left;html=1;fillColor=none;strokeColor=#B5739D;strokeWidth=3;" parent="1" vertex="1">
          <mxGeometry x="692.91" y="1500" width="393.7" height="303.15" as="geometry" />
        </mxCell>
        <mxCell id="bGR2ncDxH5QGCtKRdaTj-15" value="" style="shape=folder;fontStyle=1;spacingTop=10;tabWidth=154;tabHeight=24;tabPosition=left;html=1;fillColor=none;strokeColor=#B5739D;strokeWidth=3;" parent="1" vertex="1">
          <mxGeometry x="78.74" y="1468.5" width="594.49" height="374.02" as="geometry" />
        </mxCell>
        <mxCell id="bGR2ncDxH5QGCtKRdaTj-14" value="" style="shape=folder;fontStyle=1;spacingTop=10;tabWidth=150;tabHeight=20;tabPosition=left;html=1;strokeColor=#7EA6E0;strokeWidth=3;fillColor=none;" parent="1" vertex="1">
          <mxGeometry x="74.8" y="1854.33" width="980.32" height="807.08" as="geometry" />
        </mxCell>
        <mxCell id="UN5E2BRM_m0n_mUQd9ct-83" value="&lt;p class=&quot;MsoNormal&quot; align=&quot;center&quot;&gt;&lt;i&gt;&lt;span style=&quot;font-size: 18px&quot;&gt;ВлГУ.09.03.02.11 Чертеж №1&lt;/span&gt;&lt;/i&gt;&lt;/p&gt;" style="text;html=1;strokeColor=none;fillColor=none;align=center;verticalAlign=middle;whiteSpace=wrap;rounded=0;fontFamily=Times New Roman;fontSize=10;" parent="1" vertex="1">
          <mxGeometry x="1847.56" y="3092.86" width="471.33" height="56.74" as="geometry" />
        </mxCell>
        <mxCell id="bGR2ncDxH5QGCtKRdaTj-12" value="" style="shape=folder;fontStyle=1;spacingTop=10;tabWidth=83;tabHeight=28;tabPosition=left;html=1;autosize=1;fillColor=none;strokeWidth=3;strokeColor=#7EA6E0;" parent="1" vertex="1">
          <mxGeometry x="1267.71" y="2334.64" width="783.47" height="330.71" as="geometry" />
        </mxCell>
        <mxCell id="bOlvTl43doBLw3R69mOg-2" value="" style="rounded=0;whiteSpace=wrap;html=1;fillColor=none;" parent="1" vertex="1">
          <mxGeometry x="1591.1100000000001" y="3092.86" width="728.35" height="177.165" as="geometry" />
        </mxCell>
        <mxCell id="UN5E2BRM_m0n_mUQd9ct-3" value="" style="rounded=0;whiteSpace=wrap;html=1;fillColor=none;" parent="1" vertex="1">
          <mxGeometry x="1592.0099999999998" y="3131.16" width="27.558999999999997" height="19.685" as="geometry" />
        </mxCell>
        <mxCell id="UN5E2BRM_m0n_mUQd9ct-4" value="" style="rounded=0;whiteSpace=wrap;html=1;fillColor=none;" parent="1" vertex="1">
          <mxGeometry x="1592.0000000000002" y="3151.6699999999996" width="27.558999999999997" height="19.685" as="geometry" />
        </mxCell>
        <mxCell id="UN5E2BRM_m0n_mUQd9ct-5" value="" style="rounded=0;whiteSpace=wrap;html=1;fillColor=none;" parent="1" vertex="1">
          <mxGeometry x="1592.01" y="3111.47" width="27.558999999999997" height="19.685" as="geometry" />
        </mxCell>
        <mxCell id="UN5E2BRM_m0n_mUQd9ct-9" value="" style="rounded=0;whiteSpace=wrap;html=1;fillColor=none;" parent="1" vertex="1">
          <mxGeometry x="1619.5699999999997" y="3131.16" width="39.37" height="19.685" as="geometry" />
        </mxCell>
        <mxCell id="UN5E2BRM_m0n_mUQd9ct-10" value="" style="rounded=0;whiteSpace=wrap;html=1;fillColor=none;" parent="1" vertex="1">
          <mxGeometry x="1619.5600000000002" y="3151.6699999999996" width="39.37" height="19.685" as="geometry" />
        </mxCell>
        <mxCell id="UN5E2BRM_m0n_mUQd9ct-11" value="" style="rounded=0;whiteSpace=wrap;html=1;fillColor=none;" parent="1" vertex="1">
          <mxGeometry x="1619.57" y="3111.47" width="39.37" height="19.685" as="geometry" />
        </mxCell>
        <mxCell id="UN5E2BRM_m0n_mUQd9ct-14" value="" style="rounded=0;whiteSpace=wrap;html=1;fillColor=none;" parent="1" vertex="1">
          <mxGeometry x="1658.9399999999998" y="3131.16" width="90.551" height="19.685" as="geometry" />
        </mxCell>
        <mxCell id="UN5E2BRM_m0n_mUQd9ct-15" value="" style="rounded=0;whiteSpace=wrap;html=1;fillColor=none;" parent="1" vertex="1">
          <mxGeometry x="1659.2800000000002" y="3130.9399999999996" width="90.551" height="19.685" as="geometry" />
        </mxCell>
        <mxCell id="UN5E2BRM_m0n_mUQd9ct-16" value="" style="rounded=0;whiteSpace=wrap;html=1;fillColor=none;" parent="1" vertex="1">
          <mxGeometry x="1658.94" y="3111.47" width="90.551" height="19.685" as="geometry" />
        </mxCell>
        <mxCell id="UN5E2BRM_m0n_mUQd9ct-19" value="" style="rounded=0;whiteSpace=wrap;html=1;fillColor=none;" parent="1" vertex="1">
          <mxGeometry x="1749.4899999999998" y="3131.16" width="59.055" height="19.685" as="geometry" />
        </mxCell>
        <mxCell id="UN5E2BRM_m0n_mUQd9ct-20" value="" style="rounded=0;whiteSpace=wrap;html=1;fillColor=none;" parent="1" vertex="1">
          <mxGeometry x="1749.14" y="3151.67" width="59.055" height="19.685" as="geometry" />
        </mxCell>
        <mxCell id="UN5E2BRM_m0n_mUQd9ct-21" value="" style="rounded=0;whiteSpace=wrap;html=1;fillColor=none;" parent="1" vertex="1">
          <mxGeometry x="1749.49" y="3111.47" width="59.055" height="19.685" as="geometry" />
        </mxCell>
        <mxCell id="UN5E2BRM_m0n_mUQd9ct-24" value="" style="rounded=0;whiteSpace=wrap;html=1;fillColor=none;" parent="1" vertex="1">
          <mxGeometry x="1808.2099999999998" y="3132" width="39.37" height="19.685" as="geometry" />
        </mxCell>
        <mxCell id="UN5E2BRM_m0n_mUQd9ct-25" value="" style="rounded=0;whiteSpace=wrap;html=1;fillColor=none;" parent="1" vertex="1">
          <mxGeometry x="1808.2" y="3151.67" width="39.37" height="19.685" as="geometry" />
        </mxCell>
        <mxCell id="UN5E2BRM_m0n_mUQd9ct-26" value="" style="rounded=0;whiteSpace=wrap;html=1;fillColor=none;" parent="1" vertex="1">
          <mxGeometry x="1808.19" y="3111.47" width="39.37" height="19.685" as="geometry" />
        </mxCell>
        <mxCell id="UN5E2BRM_m0n_mUQd9ct-27" value="" style="rounded=0;whiteSpace=wrap;html=1;fillColor=none;" parent="1" vertex="1">
          <mxGeometry x="1847.56" y="3092.86" width="472.43" height="59.055" as="geometry" />
        </mxCell>
        <mxCell id="UN5E2BRM_m0n_mUQd9ct-28" value="Изм." style="text;html=1;strokeColor=none;fillColor=none;align=center;verticalAlign=middle;whiteSpace=wrap;rounded=0;fontFamily=Times New Roman;fontSize=10;" parent="1" vertex="1">
          <mxGeometry x="1591.11" y="3151.66" width="27.558999999999997" height="19.685" as="geometry" />
        </mxCell>
        <mxCell id="UN5E2BRM_m0n_mUQd9ct-29" value="Лист" style="text;html=1;strokeColor=none;fillColor=none;align=center;verticalAlign=middle;whiteSpace=wrap;rounded=0;fontFamily=Times New Roman;fontSize=10;" parent="1" vertex="1">
          <mxGeometry x="1619.9099999999999" y="3150.85" width="39.37" height="19.685" as="geometry" />
        </mxCell>
        <mxCell id="UN5E2BRM_m0n_mUQd9ct-30" value="№ докум." style="text;html=1;strokeColor=none;fillColor=none;align=center;verticalAlign=middle;whiteSpace=wrap;rounded=0;fontFamily=Times New Roman;fontSize=10;" parent="1" vertex="1">
          <mxGeometry x="1659.2799999999997" y="3151.66" width="90.551" height="19.68" as="geometry" />
        </mxCell>
        <mxCell id="UN5E2BRM_m0n_mUQd9ct-31" value="Подп" style="text;html=1;strokeColor=none;fillColor=none;align=center;verticalAlign=middle;whiteSpace=wrap;rounded=0;fontFamily=Times New Roman;fontSize=10;" parent="1" vertex="1">
          <mxGeometry x="1748.5900000000001" y="3151.93" width="59.055" height="19.68" as="geometry" />
        </mxCell>
        <mxCell id="UN5E2BRM_m0n_mUQd9ct-32" value="Дата" style="text;html=1;strokeColor=none;fillColor=none;align=center;verticalAlign=middle;whiteSpace=wrap;rounded=0;fontFamily=Times New Roman;fontSize=10;" parent="1" vertex="1">
          <mxGeometry x="1808.1899999999998" y="3151.93" width="39.37" height="19.685" as="geometry" />
        </mxCell>
        <mxCell id="UN5E2BRM_m0n_mUQd9ct-34" value="" style="rounded=0;whiteSpace=wrap;html=1;fillColor=none;" parent="1" vertex="1">
          <mxGeometry x="1592" y="3171.6" width="66.929" height="19.68" as="geometry" />
        </mxCell>
        <mxCell id="UN5E2BRM_m0n_mUQd9ct-35" value="" style="rounded=0;whiteSpace=wrap;html=1;fillColor=none;" parent="1" vertex="1">
          <mxGeometry x="1592" y="3191.28" width="66.929" height="19.68" as="geometry" />
        </mxCell>
        <mxCell id="UN5E2BRM_m0n_mUQd9ct-36" value="" style="rounded=0;whiteSpace=wrap;html=1;fillColor=none;" parent="1" vertex="1">
          <mxGeometry x="1592" y="3210.96" width="66.929" height="19.68" as="geometry" />
        </mxCell>
        <mxCell id="UN5E2BRM_m0n_mUQd9ct-37" value="" style="rounded=0;whiteSpace=wrap;html=1;fillColor=none;" parent="1" vertex="1">
          <mxGeometry x="1592" y="3230.64" width="66.929" height="19.68" as="geometry" />
        </mxCell>
        <mxCell id="UN5E2BRM_m0n_mUQd9ct-38" value="" style="rounded=0;whiteSpace=wrap;html=1;fillColor=none;" parent="1" vertex="1">
          <mxGeometry x="1592" y="3250.32" width="66.929" height="19.68" as="geometry" />
        </mxCell>
        <mxCell id="UN5E2BRM_m0n_mUQd9ct-39" value="" style="rounded=0;whiteSpace=wrap;html=1;fillColor=none;" parent="1" vertex="1">
          <mxGeometry x="1658.6" y="3151.6699999999996" width="90.551" height="19.68" as="geometry" />
        </mxCell>
        <mxCell id="UN5E2BRM_m0n_mUQd9ct-42" value="" style="rounded=0;whiteSpace=wrap;html=1;fillColor=none;" parent="1" vertex="1">
          <mxGeometry x="1658.59" y="3210.96" width="90.551" height="19.68" as="geometry" />
        </mxCell>
        <mxCell id="UN5E2BRM_m0n_mUQd9ct-43" value="" style="rounded=0;whiteSpace=wrap;html=1;fillColor=none;" parent="1" vertex="1">
          <mxGeometry x="1658.59" y="3230.64" width="90.551" height="19.68" as="geometry" />
        </mxCell>
        <mxCell id="UN5E2BRM_m0n_mUQd9ct-44" value="" style="rounded=0;whiteSpace=wrap;html=1;fillColor=none;" parent="1" vertex="1">
          <mxGeometry x="1658.59" y="3250.32" width="90.551" height="19.68" as="geometry" />
        </mxCell>
        <mxCell id="UN5E2BRM_m0n_mUQd9ct-45" value="" style="rounded=0;whiteSpace=wrap;html=1;fillColor=none;" parent="1" vertex="1">
          <mxGeometry x="1749.1499999999999" y="3171.61" width="59.055" height="19.68" as="geometry" />
        </mxCell>
        <mxCell id="UN5E2BRM_m0n_mUQd9ct-46" value="" style="rounded=0;whiteSpace=wrap;html=1;fillColor=none;" parent="1" vertex="1">
          <mxGeometry x="1749.1399999999999" y="3191.2799999999997" width="59.055" height="19.68" as="geometry" />
        </mxCell>
        <mxCell id="UN5E2BRM_m0n_mUQd9ct-48" value="" style="rounded=0;whiteSpace=wrap;html=1;fillColor=none;" parent="1" vertex="1">
          <mxGeometry x="1749.1399999999999" y="3210.96" width="59.055" height="19.68" as="geometry" />
        </mxCell>
        <mxCell id="UN5E2BRM_m0n_mUQd9ct-49" value="" style="rounded=0;whiteSpace=wrap;html=1;fillColor=none;" parent="1" vertex="1">
          <mxGeometry x="1749.1399999999999" y="3230.64" width="59.055" height="19.68" as="geometry" />
        </mxCell>
        <mxCell id="UN5E2BRM_m0n_mUQd9ct-50" value="" style="rounded=0;whiteSpace=wrap;html=1;fillColor=none;" parent="1" vertex="1">
          <mxGeometry x="1749.1399999999999" y="3250.32" width="59.055" height="19.68" as="geometry" />
        </mxCell>
        <mxCell id="UN5E2BRM_m0n_mUQd9ct-51" value="" style="rounded=0;whiteSpace=wrap;html=1;fillColor=none;" parent="1" vertex="1">
          <mxGeometry x="1808.1899999999998" y="3171.35" width="39.37" height="19.68" as="geometry" />
        </mxCell>
        <mxCell id="UN5E2BRM_m0n_mUQd9ct-52" value="" style="rounded=0;whiteSpace=wrap;html=1;fillColor=none;" parent="1" vertex="1">
          <mxGeometry x="1808.2" y="3191.2799999999997" width="39.37" height="19.68" as="geometry" />
        </mxCell>
        <mxCell id="UN5E2BRM_m0n_mUQd9ct-54" value="" style="rounded=0;whiteSpace=wrap;html=1;fillColor=none;" parent="1" vertex="1">
          <mxGeometry x="1808.2" y="3210.96" width="39.37" height="19.68" as="geometry" />
        </mxCell>
        <mxCell id="UN5E2BRM_m0n_mUQd9ct-55" value="" style="rounded=0;whiteSpace=wrap;html=1;fillColor=none;" parent="1" vertex="1">
          <mxGeometry x="1808.2" y="3230.64" width="39.37" height="19.68" as="geometry" />
        </mxCell>
        <mxCell id="UN5E2BRM_m0n_mUQd9ct-56" value="" style="rounded=0;whiteSpace=wrap;html=1;fillColor=none;" parent="1" vertex="1">
          <mxGeometry x="1808.2" y="3250.32" width="39.37" height="19.68" as="geometry" />
        </mxCell>
        <mxCell id="UN5E2BRM_m0n_mUQd9ct-58" value="" style="rounded=0;whiteSpace=wrap;html=1;fontFamily=Times New Roman;fontSize=10;fillColor=none;" parent="1" vertex="1">
          <mxGeometry x="2248.59" y="3151.68" width="70.866" height="19.685" as="geometry" />
        </mxCell>
        <mxCell id="UN5E2BRM_m0n_mUQd9ct-59" value="1" style="rounded=0;whiteSpace=wrap;html=1;fontFamily=Times New Roman;fontSize=10;fillColor=none;" parent="1" vertex="1">
          <mxGeometry x="2249.1400000000003" y="3170.53" width="70.866" height="39.37" as="geometry" />
        </mxCell>
        <mxCell id="UN5E2BRM_m0n_mUQd9ct-65" value="" style="rounded=0;whiteSpace=wrap;html=1;fontFamily=Times New Roman;fontSize=10;fillColor=none;" parent="1" vertex="1">
          <mxGeometry x="2182.23" y="3151.68" width="66.929" height="19.685" as="geometry" />
        </mxCell>
        <mxCell id="UN5E2BRM_m0n_mUQd9ct-66" value="1" style="rounded=0;whiteSpace=wrap;html=1;fontFamily=Times New Roman;fontSize=10;fillColor=none;" parent="1" vertex="1">
          <mxGeometry x="2182.21" y="3170.53" width="66.929" height="39.37" as="geometry" />
        </mxCell>
        <mxCell id="UN5E2BRM_m0n_mUQd9ct-68" value="" style="rounded=0;whiteSpace=wrap;html=1;fontFamily=Times New Roman;fontSize=10;fillColor=none;" parent="1" vertex="1">
          <mxGeometry x="2123.1800000000003" y="3151.92" width="59.055" height="19.685" as="geometry" />
        </mxCell>
        <mxCell id="UN5E2BRM_m0n_mUQd9ct-69" value="У" style="rounded=0;whiteSpace=wrap;html=1;fontFamily=Times New Roman;fontSize=10;fillColor=none;" parent="1" vertex="1">
          <mxGeometry x="2123.1600000000003" y="3170.5299999999997" width="59.05" height="39.37" as="geometry" />
        </mxCell>
        <mxCell id="UN5E2BRM_m0n_mUQd9ct-71" value="" style="rounded=0;whiteSpace=wrap;html=1;fontFamily=Times New Roman;fontSize=10;fillColor=none;" parent="1" vertex="1">
          <mxGeometry x="2123.14" y="3210.9700000000003" width="196.85" height="59.055" as="geometry" />
        </mxCell>
        <mxCell id="UN5E2BRM_m0n_mUQd9ct-72" value="Разраб" style="text;html=1;strokeColor=none;fillColor=none;align=center;verticalAlign=middle;whiteSpace=wrap;rounded=0;fontFamily=Times New Roman;fontSize=10;" parent="1" vertex="1">
          <mxGeometry x="1592.35" y="3169.47" width="66.929" height="19.68" as="geometry" />
        </mxCell>
        <mxCell id="UN5E2BRM_m0n_mUQd9ct-73" value="Пров" style="text;html=1;strokeColor=none;fillColor=none;align=center;verticalAlign=middle;whiteSpace=wrap;rounded=0;fontFamily=Times New Roman;fontSize=10;" parent="1" vertex="1">
          <mxGeometry x="1591.1069999999997" y="3190.217" width="66.929" height="19.68" as="geometry" />
        </mxCell>
        <mxCell id="UN5E2BRM_m0n_mUQd9ct-75" value="Н. Контр." style="text;html=1;strokeColor=none;fillColor=none;align=center;verticalAlign=middle;whiteSpace=wrap;rounded=0;fontFamily=Times New Roman;fontSize=10;" parent="1" vertex="1">
          <mxGeometry x="1592.001" y="3230.641" width="66.929" height="19.68" as="geometry" />
        </mxCell>
        <mxCell id="UN5E2BRM_m0n_mUQd9ct-76" value="Утв." style="text;html=1;strokeColor=none;fillColor=none;align=center;verticalAlign=middle;whiteSpace=wrap;rounded=0;fontFamily=Times New Roman;fontSize=10;" parent="1" vertex="1">
          <mxGeometry x="1592.008" y="3250.348" width="66.929" height="19.68" as="geometry" />
        </mxCell>
        <mxCell id="UN5E2BRM_m0n_mUQd9ct-77" value="Лит." style="text;html=1;strokeColor=none;fillColor=none;align=center;verticalAlign=middle;whiteSpace=wrap;rounded=0;fontFamily=Times New Roman;fontSize=10;" parent="1" vertex="1">
          <mxGeometry x="2123.1800000000003" y="3151.93" width="59.055" height="19.68" as="geometry" />
        </mxCell>
        <mxCell id="UN5E2BRM_m0n_mUQd9ct-78" value="Лист" style="text;html=1;strokeColor=none;fillColor=none;align=center;verticalAlign=middle;whiteSpace=wrap;rounded=0;fontFamily=Times New Roman;fontSize=10;" parent="1" vertex="1">
          <mxGeometry x="2182.2320000000004" y="3151.682" width="66.929" height="19.68" as="geometry" />
        </mxCell>
        <mxCell id="UN5E2BRM_m0n_mUQd9ct-79" value="Листов" style="text;html=1;strokeColor=none;fillColor=none;align=center;verticalAlign=middle;whiteSpace=wrap;rounded=0;fontFamily=Times New Roman;fontSize=10;" parent="1" vertex="1">
          <mxGeometry x="2249.16" y="3151.68" width="69.75" height="19.68" as="geometry" />
        </mxCell>
        <mxCell id="UN5E2BRM_m0n_mUQd9ct-80" value="" style="rounded=0;whiteSpace=wrap;html=1;fillColor=none;" parent="1" vertex="1">
          <mxGeometry x="1658.0400000000002" y="3171.6099999999997" width="90.551" height="19.685" as="geometry" />
        </mxCell>
        <mxCell id="UN5E2BRM_m0n_mUQd9ct-81" value="Вершинин В. В." style="text;html=1;strokeColor=none;fillColor=none;align=center;verticalAlign=middle;whiteSpace=wrap;rounded=0;fontFamily=Times New Roman;fontSize=10;" parent="1" vertex="1">
          <mxGeometry x="1659.28" y="3191.03" width="88.74" height="19.68" as="geometry" />
        </mxCell>
        <mxCell id="UN5E2BRM_m0n_mUQd9ct-84" value="&lt;font style=&quot;font-size: 17px&quot;&gt;ИСТ-120&lt;/font&gt;" style="text;html=1;strokeColor=none;fillColor=none;align=center;verticalAlign=middle;whiteSpace=wrap;rounded=0;fontFamily=Times New Roman;fontSize=10;" parent="1" vertex="1">
          <mxGeometry x="2123.18" y="3209.9" width="195.71" height="57.81" as="geometry" />
        </mxCell>
        <mxCell id="UN5E2BRM_m0n_mUQd9ct-85" value="&lt;font style=&quot;&quot;&gt;&lt;div style=&quot;&quot;&gt;&lt;br&gt;&lt;/div&gt;&lt;span style=&quot;font-size: 17px;&quot;&gt;Диаграмма прецедентов&lt;/span&gt;&lt;br&gt;&lt;/font&gt;" style="text;html=1;strokeColor=none;fillColor=none;align=center;verticalAlign=middle;whiteSpace=wrap;rounded=0;fontFamily=Times New Roman;fontSize=10;" parent="1" vertex="1">
          <mxGeometry x="1847.58" y="3151.93" width="274.46" height="116.09" as="geometry" />
        </mxCell>
        <mxCell id="DZu1GaJRUpWl5_9RTm3t-2" value="&lt;font style=&quot;font-size: 21px;&quot;&gt;unauthorized user&lt;/font&gt;" style="shape=umlActor;verticalLabelPosition=bottom;verticalAlign=top;html=1;" parent="1" vertex="1">
          <mxGeometry x="1354.3300000000002" y="2775.58" width="173.67" height="351.27" as="geometry" />
        </mxCell>
        <mxCell id="DZu1GaJRUpWl5_9RTm3t-3" value="&lt;span style=&quot;color: rgb(32, 33, 36); font-family: inherit; text-align: left; background-color: initial;&quot;&gt;&lt;font style=&quot;font-size: 19px;&quot;&gt;authorization authentication&lt;/font&gt;&lt;/span&gt;" style="ellipse;whiteSpace=wrap;html=1;fillColor=#dae8fc;strokeColor=#6c8ebf;" parent="1" vertex="1">
          <mxGeometry x="1751.9599999999998" y="2503.93" width="251.53" height="129.05" as="geometry" />
        </mxCell>
        <mxCell id="DZu1GaJRUpWl5_9RTm3t-5" value="" style="endArrow=none;html=1;rounded=0;exitX=0.5;exitY=0;exitDx=0;exitDy=0;exitPerimeter=0;entryX=0.5;entryY=1;entryDx=0;entryDy=0;" parent="1" source="DZu1GaJRUpWl5_9RTm3t-2" target="DZu1GaJRUpWl5_9RTm3t-3" edge="1">
          <mxGeometry width="50" height="50" relative="1" as="geometry">
            <mxPoint x="1650.1899999999998" y="2447.5699999999997" as="sourcePoint" />
            <mxPoint x="1700.1899999999998" y="2397.5699999999997" as="targetPoint" />
          </mxGeometry>
        </mxCell>
        <mxCell id="DZu1GaJRUpWl5_9RTm3t-7" value="&lt;span style=&quot;color: rgb(32, 33, 36); font-family: inherit; text-align: left; background-color: initial;&quot;&gt;&lt;font style=&quot;font-size: 19px;&quot;&gt;logout&lt;/font&gt;&lt;/span&gt;" style="ellipse;whiteSpace=wrap;html=1;fillColor=#dae8fc;strokeColor=#6c8ebf;" parent="1" vertex="1">
          <mxGeometry x="1555.1199999999997" y="2373.9999999999995" width="271.21" height="125.12" as="geometry" />
        </mxCell>
        <mxCell id="DZu1GaJRUpWl5_9RTm3t-8" value="&lt;font style=&quot;font-size: 21px;&quot;&gt;Student&lt;/font&gt;" style="shape=umlActor;verticalLabelPosition=bottom;verticalAlign=top;html=1;" parent="1" vertex="1">
          <mxGeometry x="1007.4269999999999" y="47.24699999999997" width="173.67" height="351.27" as="geometry" />
        </mxCell>
        <mxCell id="DZu1GaJRUpWl5_9RTm3t-16" value="&lt;span style=&quot;color: rgb(32, 33, 36); font-family: inherit; text-align: left; background-color: initial;&quot;&gt;&lt;font style=&quot;font-size: 19px;&quot;&gt;delete solve attempt&lt;/font&gt;&lt;/span&gt;" style="ellipse;whiteSpace=wrap;html=1;fillColor=#fff2cc;strokeColor=#d6b656;" parent="1" vertex="1">
          <mxGeometry x="358.26699999999994" y="1125.9769999999999" width="251.53" height="129.05" as="geometry" />
        </mxCell>
        <mxCell id="DZu1GaJRUpWl5_9RTm3t-17" value="&lt;span style=&quot;color: rgb(32, 33, 36); font-family: arial, sans-serif; font-size: 20px;&quot;&gt;view&amp;nbsp;&lt;/span&gt;&lt;span style=&quot;background-color: initial; color: rgb(32, 33, 36); font-family: arial, sans-serif; font-size: 20px;&quot;&gt;schedule&amp;nbsp;&lt;/span&gt;&lt;span style=&quot;color: rgb(32, 33, 36); font-family: arial, sans-serif; font-size: 20px;&quot;&gt;&lt;br&gt;&lt;/span&gt;" style="ellipse;whiteSpace=wrap;html=1;fillColor=#e1d5e7;strokeColor=#9673a6;" parent="1" vertex="1">
          <mxGeometry x="708.664" y="1543.304" width="251.53" height="129.05" as="geometry" />
        </mxCell>
        <mxCell id="DZu1GaJRUpWl5_9RTm3t-18" value="&lt;div style=&quot;text-align: left;&quot;&gt;&lt;span style=&quot;background-color: initial; font-size: 19px;&quot;&gt;&lt;font color=&quot;#202124&quot;&gt;leave video conference&lt;/font&gt;&lt;/span&gt;&lt;/div&gt;" style="ellipse;whiteSpace=wrap;html=1;fillColor=#e1d5e7;strokeColor=#9673a6;" parent="1" vertex="1">
          <mxGeometry x="82.68099999999998" y="1692.9109999999996" width="251.53" height="129.05" as="geometry" />
        </mxCell>
        <mxCell id="DZu1GaJRUpWl5_9RTm3t-19" value="&lt;span style=&quot;color: rgb(32, 33, 36); font-family: inherit; text-align: left; background-color: initial;&quot;&gt;&lt;font style=&quot;font-size: 19px;&quot;&gt;view course&lt;/font&gt;&lt;/span&gt;" style="ellipse;whiteSpace=wrap;html=1;" parent="1" vertex="1">
          <mxGeometry x="653.5380000000002" y="1303.1480000000006" width="251.53" height="129.05" as="geometry" />
        </mxCell>
        <mxCell id="DZu1GaJRUpWl5_9RTm3t-20" value="&lt;pre style=&quot;unicode-bidi: isolate; font-size: 28px; line-height: 36px; border: none; padding: 2px 0.14em 2px 0px; position: relative; margin-top: -2px; margin-bottom: -2px; resize: none; font-family: inherit; overflow: hidden; width: 270px; overflow-wrap: break-word; color: rgb(32, 33, 36);&quot; dir=&quot;ltr&quot; id=&quot;tw-target-text&quot; data-placeholder=&quot;Перевод&quot; class=&quot;tw-data-text tw-text-large tw-ta&quot;&gt;&lt;span style=&quot;font-size: 20px;&quot; lang=&quot;en&quot; class=&quot;Y2IQFc&quot;&gt;view marks&lt;/span&gt;&lt;/pre&gt;" style="ellipse;whiteSpace=wrap;html=1;align=center;fillColor=#e1d5e7;strokeColor=#9673a6;" parent="1" vertex="1">
          <mxGeometry x="830.705" y="1665.3549999999998" width="251.53" height="129.05" as="geometry" />
        </mxCell>
        <mxCell id="DZu1GaJRUpWl5_9RTm3t-21" value="&lt;span style=&quot;color: rgb(32, 33, 36); font-family: inherit; text-align: left; background-color: initial;&quot;&gt;&lt;font style=&quot;font-size: 19px;&quot;&gt;use messenger&lt;/font&gt;&lt;/span&gt;" style="ellipse;whiteSpace=wrap;html=1;fillColor=#dae8fc;strokeColor=#6c8ebf;" parent="1" vertex="1">
          <mxGeometry x="641.7320000000002" y="547.2420000000002" width="251.53" height="129.05" as="geometry" />
        </mxCell>
        <mxCell id="DZu1GaJRUpWl5_9RTm3t-22" value="&lt;div style=&quot;text-align: left;&quot;&gt;&lt;span style=&quot;background-color: initial; font-size: 19px;&quot;&gt;&lt;font color=&quot;#202124&quot;&gt;vote in notification&lt;/font&gt;&lt;/span&gt;&lt;/div&gt;" style="ellipse;whiteSpace=wrap;html=1;fillColor=#dae8fc;strokeColor=#6c8ebf;" parent="1" vertex="1">
          <mxGeometry x="181.099" y="798.3289999999996" width="251.53" height="129.05" as="geometry" />
        </mxCell>
        <mxCell id="DZu1GaJRUpWl5_9RTm3t-23" value="&lt;pre style=&quot;unicode-bidi: isolate; font-size: 28px; line-height: 36px; border: none; padding: 2px 0.14em 2px 0px; position: relative; margin-top: -2px; margin-bottom: -2px; resize: none; font-family: inherit; overflow: hidden; width: 270px; overflow-wrap: break-word; color: rgb(32, 33, 36);&quot; dir=&quot;ltr&quot; id=&quot;tw-target-text&quot; data-placeholder=&quot;Перевод&quot; class=&quot;tw-data-text tw-text-large tw-ta&quot;&gt;&lt;span style=&quot;font-size: 20px;&quot; lang=&quot;en&quot; class=&quot;Y2IQFc&quot;&gt;view notifications&lt;/span&gt;&lt;/pre&gt;" style="ellipse;whiteSpace=wrap;html=1;align=center;fillColor=#dae8fc;strokeColor=#6c8ebf;" parent="1" vertex="1">
          <mxGeometry x="625.9860000000002" y="751.9659999999999" width="251.53" height="129.05" as="geometry" />
        </mxCell>
        <mxCell id="DZu1GaJRUpWl5_9RTm3t-24" value="&lt;span style=&quot;color: rgb(32, 33, 36); font-family: inherit; text-align: left; background-color: initial;&quot;&gt;&lt;font style=&quot;font-size: 19px;&quot;&gt;add&amp;nbsp;&lt;/font&gt;&lt;/span&gt;&lt;span style=&quot;color: rgb(32, 33, 36); font-size: 19px; text-align: left;&quot;&gt;solve attempt&lt;/span&gt;" style="ellipse;whiteSpace=wrap;html=1;fillColor=#fff2cc;strokeColor=#d6b656;" parent="1" vertex="1">
          <mxGeometry x="70.86500000000008" y="1086.615" width="251.53" height="129.05" as="geometry" />
        </mxCell>
        <mxCell id="DZu1GaJRUpWl5_9RTm3t-25" value="&lt;span style=&quot;color: rgb(32, 33, 36); font-family: inherit; font-size: 20px; text-align: left; background-color: initial;&quot;&gt;view&amp;nbsp;&lt;/span&gt;&lt;span style=&quot;color: rgb(32, 33, 36); font-family: inherit; text-align: left; background-color: initial;&quot;&gt;&lt;font style=&quot;font-size: 20px;&quot;&gt;video material&lt;/font&gt;&lt;/span&gt;" style="ellipse;whiteSpace=wrap;html=1;fillColor=#e1d5e7;strokeColor=#9673a6;" parent="1" vertex="1">
          <mxGeometry x="122.04200000000003" y="1502.402" width="251.53" height="129.05" as="geometry" />
        </mxCell>
        <mxCell id="DZu1GaJRUpWl5_9RTm3t-26" value="&lt;span style=&quot;color: rgb(32, 33, 36); font-family: arial, sans-serif; font-size: 20px; text-align: left; background-color: initial;&quot;&gt;download&amp;nbsp;&lt;/span&gt;&lt;span style=&quot;color: rgb(32, 33, 36); font-family: arial, sans-serif; font-size: 20px; text-align: left;&quot;&gt;attachment&lt;/span&gt;" style="ellipse;whiteSpace=wrap;html=1;fillColor=#fff2cc;strokeColor=#d6b656;" parent="1" vertex="1">
          <mxGeometry x="468.499" y="998.499" width="251.53" height="129.05" as="geometry" />
        </mxCell>
        <mxCell id="DZu1GaJRUpWl5_9RTm3t-27" value="&lt;pre style=&quot;unicode-bidi: isolate; font-size: 28px; line-height: 36px; border: none; padding: 2px 0.14em 2px 0px; position: relative; margin-top: -2px; margin-bottom: -2px; resize: none; font-family: inherit; overflow: hidden; width: 270px; overflow-wrap: break-word; color: rgb(32, 33, 36);&quot; dir=&quot;ltr&quot; id=&quot;tw-target-text&quot; data-placeholder=&quot;Перевод&quot; class=&quot;tw-data-text tw-text-large tw-ta&quot;&gt;&lt;span style=&quot;font-size: 20px;&quot; lang=&quot;en&quot; class=&quot;Y2IQFc&quot;&gt;solve quizzes&lt;/span&gt;&lt;/pre&gt;" style="ellipse;whiteSpace=wrap;html=1;align=center;fillColor=#fff2cc;strokeColor=#d6b656;" parent="1" vertex="1">
          <mxGeometry x="90.54600000000005" y="1244.0960000000002" width="251.53" height="129.05" as="geometry" />
        </mxCell>
        <mxCell id="DZu1GaJRUpWl5_9RTm3t-28" value="&lt;span style=&quot;color: rgb(32, 33, 36); font-family: inherit; text-align: left; background-color: initial;&quot;&gt;&lt;font style=&quot;font-size: 19px;&quot;&gt;enter video conference&lt;/font&gt;&lt;/span&gt;" style="ellipse;whiteSpace=wrap;html=1;fillColor=#e1d5e7;strokeColor=#9673a6;" parent="1" vertex="1">
          <mxGeometry x="409.44300000000004" y="1657.4730000000002" width="251.53" height="129.05" as="geometry" />
        </mxCell>
        <mxCell id="DZu1GaJRUpWl5_9RTm3t-29" value="" style="endArrow=none;html=1;rounded=0;fontSize=21;entryX=0;entryY=1;entryDx=0;entryDy=0;entryPerimeter=0;exitX=1;exitY=0.5;exitDx=0;exitDy=0;" parent="1" source="DZu1GaJRUpWl5_9RTm3t-19" target="DZu1GaJRUpWl5_9RTm3t-8" edge="1">
          <mxGeometry width="50" height="50" relative="1" as="geometry">
            <mxPoint x="917" y="700" as="sourcePoint" />
            <mxPoint x="967" y="650" as="targetPoint" />
          </mxGeometry>
        </mxCell>
        <mxCell id="DZu1GaJRUpWl5_9RTm3t-30" value="" style="endArrow=none;html=1;rounded=0;fontSize=21;entryX=0;entryY=1;entryDx=0;entryDy=0;entryPerimeter=0;exitX=1;exitY=0.5;exitDx=0;exitDy=0;" parent="1" source="DZu1GaJRUpWl5_9RTm3t-17" target="DZu1GaJRUpWl5_9RTm3t-8" edge="1">
          <mxGeometry width="50" height="50" relative="1" as="geometry">
            <mxPoint x="704.2850000000022" y="422.7900000000001" as="sourcePoint" />
            <mxPoint x="1092.1139999999996" y="605.274" as="targetPoint" />
          </mxGeometry>
        </mxCell>
        <mxCell id="DZu1GaJRUpWl5_9RTm3t-31" value="" style="endArrow=none;html=1;rounded=0;fontSize=21;entryX=0;entryY=1;entryDx=0;entryDy=0;entryPerimeter=0;exitX=1;exitY=0;exitDx=0;exitDy=0;" parent="1" source="DZu1GaJRUpWl5_9RTm3t-20" target="DZu1GaJRUpWl5_9RTm3t-8" edge="1">
          <mxGeometry width="50" height="50" relative="1" as="geometry">
            <mxPoint x="708.2220000000023" y="426.7270000000001" as="sourcePoint" />
            <mxPoint x="1096.0509999999997" y="609.211" as="targetPoint" />
          </mxGeometry>
        </mxCell>
        <mxCell id="DZu1GaJRUpWl5_9RTm3t-32" value="" style="endArrow=none;html=1;rounded=0;fontSize=21;exitX=0.704;exitY=0.05;exitDx=0;exitDy=0;entryX=0;entryY=1;entryDx=0;entryDy=0;entryPerimeter=0;exitPerimeter=0;" parent="1" source="DZu1GaJRUpWl5_9RTm3t-21" target="DZu1GaJRUpWl5_9RTm3t-8" edge="1">
          <mxGeometry width="50" height="50" relative="1" as="geometry">
            <mxPoint x="957" y="959" as="sourcePoint" />
            <mxPoint x="1007" y="909" as="targetPoint" />
          </mxGeometry>
        </mxCell>
        <mxCell id="DZu1GaJRUpWl5_9RTm3t-34" value="&lt;span style=&quot;font-size: 10px;&quot;&gt;include&lt;/span&gt;" style="endArrow=open;endSize=12;dashed=1;html=1;rounded=0;fontSize=21;exitX=0;exitY=0.5;exitDx=0;exitDy=0;entryX=1;entryY=0.5;entryDx=0;entryDy=0;" parent="1" source="DZu1GaJRUpWl5_9RTm3t-19" target="DZu1GaJRUpWl5_9RTm3t-25" edge="1">
          <mxGeometry width="160" relative="1" as="geometry">
            <mxPoint x="740" y="504" as="sourcePoint" />
            <mxPoint x="900" y="504" as="targetPoint" />
          </mxGeometry>
        </mxCell>
        <mxCell id="DZu1GaJRUpWl5_9RTm3t-36" value="&lt;span style=&quot;font-size: 10px;&quot;&gt;include&lt;/span&gt;" style="endArrow=open;endSize=12;dashed=1;html=1;rounded=0;fontSize=21;exitX=0;exitY=0.5;exitDx=0;exitDy=0;entryX=0.5;entryY=1;entryDx=0;entryDy=0;" parent="1" source="DZu1GaJRUpWl5_9RTm3t-19" target="DZu1GaJRUpWl5_9RTm3t-16" edge="1">
          <mxGeometry width="160" relative="1" as="geometry">
            <mxPoint x="688.5349999999986" y="473.97000000000014" as="sourcePoint" />
            <mxPoint x="334.20899999999676" y="265.3140000000002" as="targetPoint" />
          </mxGeometry>
        </mxCell>
        <mxCell id="DZu1GaJRUpWl5_9RTm3t-37" value="&lt;span style=&quot;font-size: 10px;&quot;&gt;include&lt;/span&gt;" style="endArrow=open;endSize=12;dashed=1;html=1;rounded=0;fontSize=21;entryX=1;entryY=1;entryDx=0;entryDy=0;exitX=0;exitY=0.5;exitDx=0;exitDy=0;" parent="1" source="DZu1GaJRUpWl5_9RTm3t-19" target="DZu1GaJRUpWl5_9RTm3t-24" edge="1">
          <mxGeometry width="160" relative="1" as="geometry">
            <mxPoint x="701" y="1466" as="sourcePoint" />
            <mxPoint x="338.1459999999968" y="269.2510000000002" as="targetPoint" />
          </mxGeometry>
        </mxCell>
        <mxCell id="DZu1GaJRUpWl5_9RTm3t-38" value="&lt;span style=&quot;font-size: 10px;&quot;&gt;include&lt;/span&gt;" style="endArrow=open;endSize=12;dashed=1;html=1;rounded=0;fontSize=21;exitX=0.5;exitY=0;exitDx=0;exitDy=0;entryX=0.5;entryY=1;entryDx=0;entryDy=0;" parent="1" source="DZu1GaJRUpWl5_9RTm3t-19" target="DZu1GaJRUpWl5_9RTm3t-84" edge="1">
          <mxGeometry width="160" relative="1" as="geometry">
            <mxPoint x="696.4089999999986" y="481.8440000000001" as="sourcePoint" />
            <mxPoint x="555" y="461" as="targetPoint" />
          </mxGeometry>
        </mxCell>
        <mxCell id="DZu1GaJRUpWl5_9RTm3t-39" value="&lt;span style=&quot;font-size: 10px;&quot;&gt;include&lt;/span&gt;" style="endArrow=open;endSize=12;dashed=1;html=1;rounded=0;fontSize=21;exitX=0;exitY=0.5;exitDx=0;exitDy=0;entryX=1;entryY=0.5;entryDx=0;entryDy=0;" parent="1" source="DZu1GaJRUpWl5_9RTm3t-19" target="DZu1GaJRUpWl5_9RTm3t-27" edge="1">
          <mxGeometry width="160" relative="1" as="geometry">
            <mxPoint x="700.3459999999986" y="485.7810000000001" as="sourcePoint" />
            <mxPoint x="346.01999999999674" y="277.12500000000017" as="targetPoint" />
          </mxGeometry>
        </mxCell>
        <mxCell id="DZu1GaJRUpWl5_9RTm3t-40" value="&lt;span style=&quot;font-size: 10px;&quot;&gt;include&lt;/span&gt;" style="endArrow=open;endSize=12;dashed=1;html=1;rounded=0;fontSize=21;entryX=1;entryY=0;entryDx=0;entryDy=0;exitX=0;exitY=0.5;exitDx=0;exitDy=0;" parent="1" source="DZu1GaJRUpWl5_9RTm3t-19" target="DZu1GaJRUpWl5_9RTm3t-28" edge="1">
          <mxGeometry width="160" relative="1" as="geometry">
            <mxPoint x="704" y="488" as="sourcePoint" />
            <mxPoint x="349.95699999999675" y="281.0620000000002" as="targetPoint" />
          </mxGeometry>
        </mxCell>
        <mxCell id="DZu1GaJRUpWl5_9RTm3t-41" value="&lt;span style=&quot;font-size: 10px;&quot;&gt;include&lt;/span&gt;" style="endArrow=open;endSize=12;dashed=1;html=1;rounded=0;fontSize=21;exitX=0;exitY=0.5;exitDx=0;exitDy=0;entryX=1;entryY=0.5;entryDx=0;entryDy=0;" parent="1" source="DZu1GaJRUpWl5_9RTm3t-28" target="DZu1GaJRUpWl5_9RTm3t-18" edge="1">
          <mxGeometry width="160" relative="1" as="geometry">
            <mxPoint x="708.2199999999985" y="493.65500000000014" as="sourcePoint" />
            <mxPoint x="353.89399999999677" y="284.9990000000002" as="targetPoint" />
          </mxGeometry>
        </mxCell>
        <mxCell id="DZu1GaJRUpWl5_9RTm3t-42" value="" style="endArrow=none;html=1;rounded=0;fontSize=21;entryX=0;entryY=1;entryDx=0;entryDy=0;entryPerimeter=0;exitX=1;exitY=0;exitDx=0;exitDy=0;" parent="1" source="DZu1GaJRUpWl5_9RTm3t-23" target="DZu1GaJRUpWl5_9RTm3t-8" edge="1">
          <mxGeometry width="50" height="50" relative="1" as="geometry">
            <mxPoint x="787.1780000000005" y="858.263" as="sourcePoint" />
            <mxPoint x="1099.9879999999994" y="613.1479999999998" as="targetPoint" />
          </mxGeometry>
        </mxCell>
        <mxCell id="DZu1GaJRUpWl5_9RTm3t-43" value="&lt;span style=&quot;font-size: 10px;&quot;&gt;include&lt;/span&gt;" style="endArrow=open;endSize=12;dashed=1;html=1;rounded=0;fontSize=21;exitX=0.5;exitY=1;exitDx=0;exitDy=0;entryX=1;entryY=0;entryDx=0;entryDy=0;" parent="1" source="DZu1GaJRUpWl5_9RTm3t-23" target="DZu1GaJRUpWl5_9RTm3t-22" edge="1">
          <mxGeometry width="160" relative="1" as="geometry">
            <mxPoint x="287.40000000000384" y="781.055" as="sourcePoint" />
            <mxPoint x="204.50300000000027" y="834.6479999999998" as="targetPoint" />
          </mxGeometry>
        </mxCell>
        <mxCell id="DZu1GaJRUpWl5_9RTm3t-44" value="&lt;span style=&quot;font-size: 21px;&quot;&gt;tutor&lt;/span&gt;" style="shape=umlActor;verticalLabelPosition=bottom;verticalAlign=top;html=1;" parent="1" vertex="1">
          <mxGeometry x="1511.8039999999999" y="47.243999999999986" width="173.67" height="351.27" as="geometry" />
        </mxCell>
        <mxCell id="DZu1GaJRUpWl5_9RTm3t-47" value="" style="endArrow=block;endSize=16;endFill=0;html=1;rounded=0;fontSize=21;exitX=0.5;exitY=0.5;exitDx=0;exitDy=0;exitPerimeter=0;entryX=0.5;entryY=0.5;entryDx=0;entryDy=0;entryPerimeter=0;" parent="1" source="DZu1GaJRUpWl5_9RTm3t-44" target="DZu1GaJRUpWl5_9RTm3t-8" edge="1">
          <mxGeometry width="160" relative="1" as="geometry">
            <mxPoint x="1429" y="803" as="sourcePoint" />
            <mxPoint x="1589" y="803" as="targetPoint" />
          </mxGeometry>
        </mxCell>
        <mxCell id="DZu1GaJRUpWl5_9RTm3t-48" value="&lt;span style=&quot;color: rgb(32, 33, 36); font-family: inherit; text-align: left; background-color: initial;&quot;&gt;&lt;font style=&quot;font-size: 19px;&quot;&gt;create notification&lt;/font&gt;&lt;/span&gt;" style="ellipse;whiteSpace=wrap;html=1;fillColor=#dae8fc;strokeColor=#6c8ebf;" parent="1" vertex="1">
          <mxGeometry x="1340.819" y="620.5190000000001" width="251.53" height="129.05" as="geometry" />
        </mxCell>
        <mxCell id="DZu1GaJRUpWl5_9RTm3t-49" value="" style="endArrow=none;html=1;rounded=0;fontSize=21;exitX=0.5;exitY=0;exitDx=0;exitDy=0;entryX=1;entryY=1;entryDx=0;entryDy=0;entryPerimeter=0;" parent="1" source="DZu1GaJRUpWl5_9RTm3t-48" target="DZu1GaJRUpWl5_9RTm3t-44" edge="1">
          <mxGeometry width="50" height="50" relative="1" as="geometry">
            <mxPoint x="1464.187" y="927.807" as="sourcePoint" />
            <mxPoint x="1638.7815" y="488.18100000000004" as="targetPoint" />
          </mxGeometry>
        </mxCell>
        <mxCell id="DZu1GaJRUpWl5_9RTm3t-50" value="&lt;span style=&quot;color: rgb(32, 33, 36); font-family: inherit; text-align: left; background-color: initial;&quot;&gt;&lt;font style=&quot;font-size: 19px;&quot;&gt;verification of works&lt;/font&gt;&lt;/span&gt;" style="ellipse;whiteSpace=wrap;html=1;" parent="1" vertex="1">
          <mxGeometry x="1740.156" y="787.3960000000001" width="251.53" height="129.05" as="geometry" />
        </mxCell>
        <mxCell id="DZu1GaJRUpWl5_9RTm3t-51" value="" style="endArrow=none;html=1;rounded=0;fontSize=21;exitX=0;exitY=0.5;exitDx=0;exitDy=0;entryX=1;entryY=1;entryDx=0;entryDy=0;entryPerimeter=0;" parent="1" source="DZu1GaJRUpWl5_9RTm3t-50" target="DZu1GaJRUpWl5_9RTm3t-44" edge="1">
          <mxGeometry width="50" height="50" relative="1" as="geometry">
            <mxPoint x="1768.804" y="982.624" as="sourcePoint" />
            <mxPoint x="1696.8453900000004" y="518.7540099999999" as="targetPoint" />
          </mxGeometry>
        </mxCell>
        <mxCell id="DZu1GaJRUpWl5_9RTm3t-52" value="&lt;pre style=&quot;unicode-bidi: isolate; line-height: 36px; border: none; padding: 2px 0.14em 2px 0px; position: relative; margin-top: -2px; margin-bottom: -2px; resize: none; font-family: inherit; overflow: hidden; width: 270px; overflow-wrap: break-word; color: rgb(32, 33, 36);&quot; dir=&quot;ltr&quot; id=&quot;tw-target-text&quot; data-placeholder=&quot;Перевод&quot; class=&quot;tw-data-text tw-text-large tw-ta&quot;&gt;&lt;span style=&quot;color: rgb(0, 0, 0); font-family: -apple-system, BlinkMacSystemFont, Roboto, &amp;quot;Open Sans&amp;quot;, &amp;quot;Helvetica Neue&amp;quot;, &amp;quot;Noto Sans Armenian&amp;quot;, &amp;quot;Noto Sans Bengali&amp;quot;, &amp;quot;Noto Sans Cherokee&amp;quot;, &amp;quot;Noto Sans Devanagari&amp;quot;, &amp;quot;Noto Sans Ethiopic&amp;quot;, &amp;quot;Noto Sans Georgian&amp;quot;, &amp;quot;Noto Sans Hebrew&amp;quot;, &amp;quot;Noto Sans Kannada&amp;quot;, &amp;quot;Noto Sans Khmer&amp;quot;, &amp;quot;Noto Sans Lao&amp;quot;, &amp;quot;Noto Sans Osmanya&amp;quot;, &amp;quot;Noto Sans Tamil&amp;quot;, &amp;quot;Noto Sans Telugu&amp;quot;, &amp;quot;Noto Sans Thai&amp;quot;, sans-serif; font-size: 20px; text-align: left;&quot;&gt;submit mark&lt;/span&gt;&lt;br&gt;&lt;/pre&gt;" style="ellipse;whiteSpace=wrap;html=1;align=center;fillColor=#fff2cc;strokeColor=#d6b656;" parent="1" vertex="1">
          <mxGeometry x="2031.063" y="833.7730000000001" width="251.53" height="129.05" as="geometry" />
        </mxCell>
        <mxCell id="DZu1GaJRUpWl5_9RTm3t-53" value="&lt;div style=&quot;text-align: left; font-size: 20px;&quot;&gt;&lt;span style=&quot;color: rgb(32, 33, 36); font-family: arial, sans-serif; background-color: initial; text-align: center;&quot;&gt;comment the work&lt;/span&gt;&lt;br&gt;&lt;/div&gt;" style="ellipse;whiteSpace=wrap;html=1;fillColor=#dae8fc;strokeColor=#6c8ebf;" parent="1" vertex="1">
          <mxGeometry x="1995.0600000000002" y="669.2800000000002" width="251.53" height="129.05" as="geometry" />
        </mxCell>
        <mxCell id="DZu1GaJRUpWl5_9RTm3t-54" value="&lt;pre style=&quot;unicode-bidi: isolate; font-size: 28px; line-height: 36px; border: none; padding: 2px 0.14em 2px 0px; position: relative; margin-top: -2px; margin-bottom: -2px; resize: none; font-family: inherit; overflow: hidden; width: 270px; overflow-wrap: break-word; color: rgb(32, 33, 36);&quot; dir=&quot;ltr&quot; id=&quot;tw-target-text&quot; data-placeholder=&quot;Перевод&quot; class=&quot;tw-data-text tw-text-large tw-ta&quot;&gt;&lt;span style=&quot;font-size: 20px;&quot; lang=&quot;en&quot; class=&quot;Y2IQFc&quot;&gt;check for plagiarism &lt;/span&gt;&lt;/pre&gt;" style="ellipse;whiteSpace=wrap;html=1;align=center;fillColor=#e1d5e7;strokeColor=#9673a6;" parent="1" vertex="1">
          <mxGeometry x="1808.547" y="527.557" width="251.53" height="129.05" as="geometry" />
        </mxCell>
        <mxCell id="DZu1GaJRUpWl5_9RTm3t-55" value="&lt;font style=&quot;font-size: 10px;&quot;&gt;extend&lt;/font&gt;" style="html=1;verticalAlign=bottom;endArrow=open;dashed=1;endSize=8;rounded=0;fontSize=21;exitX=0.5;exitY=1;exitDx=0;exitDy=0;entryX=0.5;entryY=0;entryDx=0;entryDy=0;" parent="1" source="DZu1GaJRUpWl5_9RTm3t-54" target="DZu1GaJRUpWl5_9RTm3t-50" edge="1">
          <mxGeometry relative="1" as="geometry">
            <mxPoint x="1820" y="583" as="sourcePoint" />
            <mxPoint x="1740" y="583" as="targetPoint" />
          </mxGeometry>
        </mxCell>
        <mxCell id="DZu1GaJRUpWl5_9RTm3t-56" value="&lt;span style=&quot;font-size: 10px;&quot;&gt;extend&lt;/span&gt;" style="html=1;verticalAlign=bottom;endArrow=open;dashed=1;endSize=8;rounded=0;fontSize=21;exitX=0;exitY=0.5;exitDx=0;exitDy=0;entryX=1;entryY=0;entryDx=0;entryDy=0;" parent="1" source="DZu1GaJRUpWl5_9RTm3t-53" target="DZu1GaJRUpWl5_9RTm3t-50" edge="1">
          <mxGeometry relative="1" as="geometry">
            <mxPoint x="2001.3490000000002" y="188.10400000000016" as="sourcePoint" />
            <mxPoint x="1859.5079999999998" y="283.4630000000001" as="targetPoint" />
          </mxGeometry>
        </mxCell>
        <mxCell id="DZu1GaJRUpWl5_9RTm3t-57" value="&lt;span style=&quot;font-size: 10px;&quot;&gt;include&lt;/span&gt;" style="html=1;verticalAlign=bottom;endArrow=open;dashed=1;endSize=8;rounded=0;fontSize=21;entryX=0;entryY=0;entryDx=0;entryDy=0;exitX=1;exitY=0.5;exitDx=0;exitDy=0;" parent="1" source="DZu1GaJRUpWl5_9RTm3t-50" target="DZu1GaJRUpWl5_9RTm3t-52" edge="1">
          <mxGeometry relative="1" as="geometry">
            <mxPoint x="2038.3470000000027" y="282.2720000000001" as="sourcePoint" />
            <mxPoint x="2015.7460000000044" y="368.88100000000003" as="targetPoint" />
          </mxGeometry>
        </mxCell>
        <mxCell id="DZu1GaJRUpWl5_9RTm3t-58" value="&lt;pre style=&quot;unicode-bidi: isolate; font-size: 28px; line-height: 36px; border: none; padding: 2px 0.14em 2px 0px; position: relative; margin-top: -2px; margin-bottom: -2px; resize: none; font-family: inherit; overflow: hidden; width: 270px; overflow-wrap: break-word; color: rgb(32, 33, 36);&quot; dir=&quot;ltr&quot; id=&quot;tw-target-text&quot; data-placeholder=&quot;Перевод&quot; class=&quot;tw-data-text tw-text-large tw-ta&quot;&gt;&lt;span style=&quot;font-size: 20px;&quot; lang=&quot;en&quot; class=&quot;Y2IQFc&quot;&gt;editing course&lt;/span&gt;&lt;/pre&gt;" style="ellipse;whiteSpace=wrap;html=1;align=center;" parent="1" vertex="1">
          <mxGeometry x="1582.2459999999999" y="1488.1860000000001" width="251.53" height="129.05" as="geometry" />
        </mxCell>
        <mxCell id="DZu1GaJRUpWl5_9RTm3t-59" value="" style="endArrow=none;html=1;rounded=0;fontSize=21;exitX=0.5;exitY=0;exitDx=0;exitDy=0;entryX=1;entryY=1;entryDx=0;entryDy=0;entryPerimeter=0;" parent="1" source="DZu1GaJRUpWl5_9RTm3t-58" target="DZu1GaJRUpWl5_9RTm3t-44" edge="1">
          <mxGeometry width="50" height="50" relative="1" as="geometry">
            <mxPoint x="1566.9939999999997" y="1725.8439999999998" as="sourcePoint" />
            <mxPoint x="1653.759968040632" y="835.5139999999999" as="targetPoint" />
          </mxGeometry>
        </mxCell>
        <mxCell id="DZu1GaJRUpWl5_9RTm3t-60" value="&lt;span style=&quot;font-size: 10px;&quot;&gt;include&lt;/span&gt;" style="endArrow=open;endSize=12;dashed=1;html=1;rounded=0;fontSize=21;entryX=0;entryY=0.5;entryDx=0;entryDy=0;exitX=0.661;exitY=0.038;exitDx=0;exitDy=0;exitPerimeter=0;" parent="1" source="DZu1GaJRUpWl5_9RTm3t-58" target="DZu1GaJRUpWl5_9RTm3t-61" edge="1">
          <mxGeometry width="160" relative="1" as="geometry">
            <mxPoint x="1783.46" y="1086.79" as="sourcePoint" />
            <mxPoint x="1943" y="1087" as="targetPoint" />
          </mxGeometry>
        </mxCell>
        <mxCell id="DZu1GaJRUpWl5_9RTm3t-61" value="&lt;span style=&quot;color: rgb(32, 33, 36); font-family: inherit; text-align: left; background-color: initial;&quot;&gt;&lt;font style=&quot;font-size: 19px;&quot;&gt;create quiz&lt;/font&gt;&lt;/span&gt;" style="ellipse;whiteSpace=wrap;html=1;fillColor=#fff2cc;strokeColor=#d6b656;" parent="1" vertex="1">
          <mxGeometry x="1712.6029999999996" y="1137.7930000000001" width="251.53" height="129.05" as="geometry" />
        </mxCell>
        <mxCell id="DZu1GaJRUpWl5_9RTm3t-62" value="&lt;span style=&quot;color: rgb(32, 33, 36); font-size: 19px; text-align: left;&quot;&gt;delete quiz&lt;/span&gt;" style="ellipse;whiteSpace=wrap;html=1;fillColor=#fff2cc;strokeColor=#d6b656;" parent="1" vertex="1">
          <mxGeometry x="1988.1899999999991" y="1133.8600000000001" width="251.53" height="129.05" as="geometry" />
        </mxCell>
        <mxCell id="DZu1GaJRUpWl5_9RTm3t-63" value="&lt;span style=&quot;font-size: 10px;&quot;&gt;include&lt;/span&gt;" style="endArrow=open;endSize=12;dashed=1;html=1;rounded=0;fontSize=21;entryX=0;entryY=0.5;entryDx=0;entryDy=0;exitX=0.752;exitY=0.066;exitDx=0;exitDy=0;exitPerimeter=0;" parent="1" source="DZu1GaJRUpWl5_9RTm3t-58" target="DZu1GaJRUpWl5_9RTm3t-62" edge="1">
          <mxGeometry width="160" relative="1" as="geometry">
            <mxPoint x="1787.397" y="1090.7269999999999" as="sourcePoint" />
            <mxPoint x="1795.269999999991" y="935.475" as="targetPoint" />
          </mxGeometry>
        </mxCell>
        <mxCell id="DZu1GaJRUpWl5_9RTm3t-64" value="&lt;div style=&quot;text-align: left;&quot;&gt;&lt;span style=&quot;background-color: initial; font-size: 19px;&quot;&gt;&lt;font color=&quot;#202124&quot;&gt;create video conference&lt;/font&gt;&lt;/span&gt;&lt;/div&gt;" style="ellipse;whiteSpace=wrap;html=1;fillColor=#e1d5e7;strokeColor=#9673a6;" parent="1" vertex="1">
          <mxGeometry x="2003.4899999999993" y="2125.9800000000005" width="251.53" height="129.05" as="geometry" />
        </mxCell>
        <mxCell id="DZu1GaJRUpWl5_9RTm3t-66" value="&lt;span style=&quot;color: rgb(32, 33, 36); font-family: inherit; text-align: left; background-color: initial;&quot;&gt;&lt;font style=&quot;font-size: 19px;&quot;&gt;delete&amp;nbsp;&lt;/font&gt;&lt;/span&gt;&lt;span style=&quot;color: rgb(32, 33, 36); font-size: 19px; text-align: left;&quot;&gt;video conference&lt;/span&gt;" style="ellipse;whiteSpace=wrap;html=1;fillColor=#e1d5e7;strokeColor=#9673a6;" parent="1" vertex="1">
          <mxGeometry x="1629.916999999999" y="2125.9770000000003" width="251.53" height="129.05" as="geometry" />
        </mxCell>
        <mxCell id="DZu1GaJRUpWl5_9RTm3t-67" value="&lt;span style=&quot;font-size: 10px;&quot;&gt;include&lt;/span&gt;" style="endArrow=open;endSize=12;dashed=1;html=1;rounded=0;fontSize=21;entryX=0;entryY=0.5;entryDx=0;entryDy=0;exitX=1;exitY=1;exitDx=0;exitDy=0;" parent="1" source="DZu1GaJRUpWl5_9RTm3t-58" target="DZu1GaJRUpWl5_9RTm3t-64" edge="1">
          <mxGeometry width="160" relative="1" as="geometry">
            <mxPoint x="1783.462999999998" y="1091.208" as="sourcePoint" />
            <mxPoint x="1909.446999999991" y="1084.2119999999998" as="targetPoint" />
          </mxGeometry>
        </mxCell>
        <mxCell id="DZu1GaJRUpWl5_9RTm3t-68" value="&lt;span style=&quot;font-size: 10px;&quot;&gt;include&lt;/span&gt;" style="endArrow=open;endSize=12;dashed=1;html=1;rounded=0;fontSize=21;exitX=1;exitY=1;exitDx=0;exitDy=0;" parent="1" source="DZu1GaJRUpWl5_9RTm3t-58" target="DZu1GaJRUpWl5_9RTm3t-66" edge="1">
          <mxGeometry width="160" relative="1" as="geometry">
            <mxPoint x="1787.399999999998" y="1095.1450000000002" as="sourcePoint" />
            <mxPoint x="1913.3839999999911" y="1088.149" as="targetPoint" />
          </mxGeometry>
        </mxCell>
        <mxCell id="DZu1GaJRUpWl5_9RTm3t-73" value="&lt;div style=&quot;text-align: left;&quot;&gt;&lt;span style=&quot;background-color: initial; font-size: 19px;&quot;&gt;&lt;font color=&quot;#202124&quot;&gt;nomination individual variant&lt;/font&gt;&lt;/span&gt;&lt;/div&gt;" style="ellipse;whiteSpace=wrap;html=1;fillColor=#fff2cc;strokeColor=#d6b656;" parent="1" vertex="1">
          <mxGeometry x="1936.9999999999998" y="1598.42" width="251.96" height="149.6" as="geometry" />
        </mxCell>
        <mxCell id="DZu1GaJRUpWl5_9RTm3t-74" value="&lt;div style=&quot;text-align: left;&quot;&gt;&lt;span style=&quot;background-color: initial; font-size: 19px;&quot;&gt;&lt;font color=&quot;#202124&quot;&gt;create individual variant&lt;/font&gt;&lt;/span&gt;&lt;/div&gt;" style="ellipse;whiteSpace=wrap;html=1;fillColor=#fff2cc;strokeColor=#d6b656;" parent="1" vertex="1">
          <mxGeometry x="1362.2049999999992" y="1338.5750000000003" width="251.53" height="129.05" as="geometry" />
        </mxCell>
        <mxCell id="DZu1GaJRUpWl5_9RTm3t-75" value="&lt;span style=&quot;font-size: 10px;&quot;&gt;include&lt;/span&gt;" style="endArrow=open;endSize=12;dashed=1;html=1;rounded=0;fontSize=21;entryX=0.5;entryY=1;entryDx=0;entryDy=0;exitX=0;exitY=0.5;exitDx=0;exitDy=0;" parent="1" source="DZu1GaJRUpWl5_9RTm3t-58" target="DZu1GaJRUpWl5_9RTm3t-74" edge="1">
          <mxGeometry width="160" relative="1" as="geometry">
            <mxPoint x="1799.2109999999975" y="1106.9560000000001" as="sourcePoint" />
            <mxPoint x="1917.3179999999938" y="1659.0130000000004" as="targetPoint" />
          </mxGeometry>
        </mxCell>
        <mxCell id="DZu1GaJRUpWl5_9RTm3t-76" value="&lt;span style=&quot;font-size: 10px;&quot;&gt;include&lt;/span&gt;" style="endArrow=open;endSize=12;dashed=1;html=1;rounded=0;fontSize=21;entryX=0.5;entryY=0;entryDx=0;entryDy=0;exitX=1;exitY=1;exitDx=0;exitDy=0;" parent="1" source="DZu1GaJRUpWl5_9RTm3t-58" target="DZu1GaJRUpWl5_9RTm3t-73" edge="1">
          <mxGeometry width="160" relative="1" as="geometry">
            <mxPoint x="1531.9330000000036" y="1091.2079999999999" as="sourcePoint" />
            <mxPoint x="1419.3926051726362" y="1174.6187893447127" as="targetPoint" />
          </mxGeometry>
        </mxCell>
        <mxCell id="DZu1GaJRUpWl5_9RTm3t-79" value="&lt;div style=&quot;text-align: left;&quot;&gt;&lt;span style=&quot;background-color: initial; font-size: 19px;&quot;&gt;&lt;font color=&quot;#202124&quot;&gt;add material in new sectoin&lt;/font&gt;&lt;/span&gt;&lt;/div&gt;" style="ellipse;whiteSpace=wrap;html=1;fillColor=#fff2cc;strokeColor=#d6b656;" parent="1" vertex="1">
          <mxGeometry x="1476.3869999999997" y="1791.337" width="251.96" height="149.6" as="geometry" />
        </mxCell>
        <mxCell id="DZu1GaJRUpWl5_9RTm3t-81" value="&lt;span style=&quot;font-size: 10px;&quot;&gt;include&lt;/span&gt;" style="endArrow=open;endSize=12;dashed=1;html=1;rounded=0;fontSize=21;entryX=0.292;entryY=0.057;entryDx=0;entryDy=0;exitX=0.5;exitY=1;exitDx=0;exitDy=0;entryPerimeter=0;" parent="1" source="DZu1GaJRUpWl5_9RTm3t-58" target="DZu1GaJRUpWl5_9RTm3t-79" edge="1">
          <mxGeometry width="160" relative="1" as="geometry">
            <mxPoint x="1535.8700000000035" y="1095.1449999999998" as="sourcePoint" />
            <mxPoint x="1429.127" y="1279.5269999999996" as="targetPoint" />
          </mxGeometry>
        </mxCell>
        <mxCell id="DZu1GaJRUpWl5_9RTm3t-82" value="&lt;div style=&quot;text-align: left;&quot;&gt;&lt;span style=&quot;background-color: initial; font-size: 19px;&quot;&gt;&lt;font color=&quot;#202124&quot;&gt;delete material from section&lt;/font&gt;&lt;/span&gt;&lt;/div&gt;" style="ellipse;whiteSpace=wrap;html=1;fillColor=#fff2cc;strokeColor=#d6b656;" parent="1" vertex="1">
          <mxGeometry x="1346.4439999999997" y="1625.984" width="251.96" height="149.6" as="geometry" />
        </mxCell>
        <mxCell id="DZu1GaJRUpWl5_9RTm3t-83" value="&lt;span style=&quot;font-size: 10px;&quot;&gt;include&lt;/span&gt;" style="endArrow=open;endSize=12;dashed=1;html=1;rounded=0;fontSize=21;entryX=0.5;entryY=0;entryDx=0;entryDy=0;exitX=0;exitY=1;exitDx=0;exitDy=0;" parent="1" source="DZu1GaJRUpWl5_9RTm3t-58" target="DZu1GaJRUpWl5_9RTm3t-82" edge="1">
          <mxGeometry width="160" relative="1" as="geometry">
            <mxPoint x="1535.8670000000038" y="1248.0319999999997" as="sourcePoint" />
            <mxPoint x="1429.1239999999998" y="1432.4139999999995" as="targetPoint" />
          </mxGeometry>
        </mxCell>
        <mxCell id="DZu1GaJRUpWl5_9RTm3t-84" value="&lt;span style=&quot;color: rgb(32, 33, 36); font-family: inherit; font-size: 20px; text-align: left; background-color: initial;&quot;&gt;preview&lt;/span&gt;&lt;span style=&quot;color: rgb(32, 33, 36); font-family: inherit; text-align: left; background-color: initial;&quot;&gt;&lt;font size=&quot;1&quot;&gt;&amp;nbsp;&lt;/font&gt;&lt;/span&gt;&lt;span style=&quot;color: rgb(32, 33, 36); font-family: arial, sans-serif; font-size: 20px; text-align: left; background-color: initial;&quot;&gt;attachment&lt;/span&gt;" style="ellipse;whiteSpace=wrap;html=1;fillColor=#fff2cc;strokeColor=#d6b656;" parent="1" vertex="1">
          <mxGeometry x="677.166" y="1115.0459999999998" width="251.53" height="129.05" as="geometry" />
        </mxCell>
        <mxCell id="DZu1GaJRUpWl5_9RTm3t-85" value="&lt;span style=&quot;font-size: 10px;&quot;&gt;include&lt;/span&gt;" style="endArrow=open;endSize=12;dashed=1;html=1;rounded=0;fontSize=21;exitX=0.5;exitY=0;exitDx=0;exitDy=0;entryX=0.5;entryY=1;entryDx=0;entryDy=0;" parent="1" source="DZu1GaJRUpWl5_9RTm3t-84" target="DZu1GaJRUpWl5_9RTm3t-26" edge="1">
          <mxGeometry width="160" relative="1" as="geometry">
            <mxPoint x="814.2999999999998" y="409.44500000000005" as="sourcePoint" />
            <mxPoint x="771.4379999999998" y="325.90300000000036" as="targetPoint" />
          </mxGeometry>
        </mxCell>
        <mxCell id="DZu1GaJRUpWl5_9RTm3t-105" value="&lt;div style=&quot;text-align: left;&quot;&gt;&lt;span style=&quot;background-color: initial; font-size: 19px;&quot;&gt;&lt;font color=&quot;#202124&quot;&gt;delete section&lt;/font&gt;&lt;/span&gt;&lt;/div&gt;" style="ellipse;whiteSpace=wrap;html=1;fillColor=#fff2cc;strokeColor=#d6b656;" parent="1" vertex="1">
          <mxGeometry x="2015.7409999999988" y="1283.461" width="251.53" height="129.05" as="geometry" />
        </mxCell>
        <mxCell id="DZu1GaJRUpWl5_9RTm3t-106" value="&lt;div style=&quot;text-align: left;&quot;&gt;&lt;span style=&quot;background-color: initial; font-size: 19px;&quot;&gt;&lt;font color=&quot;#202124&quot;&gt;create new section&lt;/font&gt;&lt;/span&gt;&lt;/div&gt;" style="ellipse;whiteSpace=wrap;html=1;fillColor=#fff2cc;strokeColor=#d6b656;" parent="1" vertex="1">
          <mxGeometry x="2035.4339999999986" y="1429.1339999999996" width="251.53" height="129.05" as="geometry" />
        </mxCell>
        <mxCell id="DZu1GaJRUpWl5_9RTm3t-107" value="&lt;span style=&quot;font-size: 10px;&quot;&gt;include&lt;/span&gt;" style="endArrow=open;endSize=12;dashed=1;html=1;rounded=0;fontSize=21;entryX=0;entryY=0.5;entryDx=0;entryDy=0;exitX=0.991;exitY=0.407;exitDx=0;exitDy=0;exitPerimeter=0;" parent="1" source="DZu1GaJRUpWl5_9RTm3t-58" target="DZu1GaJRUpWl5_9RTm3t-106" edge="1">
          <mxGeometry width="160" relative="1" as="geometry">
            <mxPoint x="1791.3369999999977" y="1099.082" as="sourcePoint" />
            <mxPoint x="1992.1239999999898" y="1083.3290000000002" as="targetPoint" />
          </mxGeometry>
        </mxCell>
        <mxCell id="DZu1GaJRUpWl5_9RTm3t-108" value="&lt;span style=&quot;font-size: 10px;&quot;&gt;include&lt;/span&gt;" style="endArrow=open;endSize=12;dashed=1;html=1;rounded=0;fontSize=21;entryX=0;entryY=0.5;entryDx=0;entryDy=0;exitX=1;exitY=0;exitDx=0;exitDy=0;" parent="1" source="DZu1GaJRUpWl5_9RTm3t-58" target="DZu1GaJRUpWl5_9RTm3t-105" edge="1">
          <mxGeometry width="160" relative="1" as="geometry">
            <mxPoint x="1795.2739999999976" y="1103.019" as="sourcePoint" />
            <mxPoint x="1988.1909999999948" y="1221.1259999999995" as="targetPoint" />
          </mxGeometry>
        </mxCell>
        <mxCell id="DZu1GaJRUpWl5_9RTm3t-112" value="&lt;font style=&quot;font-size: 21px;&quot;&gt;Administrator&lt;/font&gt;" style="shape=umlActor;verticalLabelPosition=bottom;verticalAlign=top;html=1;" parent="1" vertex="1">
          <mxGeometry x="1031.4939999999997" y="2771.6440000000002" width="173.67" height="351.27" as="geometry" />
        </mxCell>
        <mxCell id="DZu1GaJRUpWl5_9RTm3t-113" value="" style="endArrow=none;html=1;rounded=0;entryX=0.5;entryY=0;entryDx=0;entryDy=0;entryPerimeter=0;exitX=1;exitY=1;exitDx=0;exitDy=0;exitPerimeter=0;" parent="1" source="DZu1GaJRUpWl5_9RTm3t-8" target="DZu1GaJRUpWl5_9RTm3t-112" edge="1">
          <mxGeometry width="50" height="50" relative="1" as="geometry">
            <mxPoint x="1234.9094738734407" y="839.4539999999998" as="sourcePoint" />
            <mxPoint x="1628.5119999999997" y="2074.7969999999996" as="targetPoint" />
            <Array as="points" />
          </mxGeometry>
        </mxCell>
        <mxCell id="DZu1GaJRUpWl5_9RTm3t-114" value="&lt;span style=&quot;color: rgb(32, 33, 36); font-family: inherit; text-align: left; background-color: initial;&quot;&gt;&lt;font style=&quot;font-size: 19px;&quot;&gt;manage users&lt;/font&gt;&lt;/span&gt;" style="ellipse;whiteSpace=wrap;html=1;fillColor=#dae8fc;strokeColor=#6c8ebf;" parent="1" vertex="1">
          <mxGeometry x="692.9069999999997" y="1953.6169999999995" width="251.53" height="129.05" as="geometry" />
        </mxCell>
        <mxCell id="DZu1GaJRUpWl5_9RTm3t-115" value="" style="endArrow=none;html=1;rounded=0;entryX=0.5;entryY=0;entryDx=0;entryDy=0;exitX=1;exitY=0.5;exitDx=0;exitDy=0;entryPerimeter=0;" parent="1" source="DZu1GaJRUpWl5_9RTm3t-114" target="DZu1GaJRUpWl5_9RTm3t-112" edge="1">
          <mxGeometry width="50" height="50" relative="1" as="geometry">
            <mxPoint x="1234.9094738734407" y="839.4539999999998" as="sourcePoint" />
            <mxPoint x="1628.5119999999997" y="2074.7969999999996" as="targetPoint" />
            <Array as="points" />
          </mxGeometry>
        </mxCell>
        <mxCell id="DZu1GaJRUpWl5_9RTm3t-116" value="&lt;span style=&quot;font-size: 10px;&quot;&gt;include&lt;/span&gt;" style="endArrow=open;endSize=12;dashed=1;html=1;rounded=0;fontSize=21;exitX=0;exitY=1;exitDx=0;exitDy=0;entryX=1;entryY=0.5;entryDx=0;entryDy=0;" parent="1" source="DZu1GaJRUpWl5_9RTm3t-114" target="DZu1GaJRUpWl5_9RTm3t-118" edge="1">
          <mxGeometry width="160" relative="1" as="geometry">
            <mxPoint x="446.73299999999733" y="1692.908" as="sourcePoint" />
            <mxPoint x="389.7617169703889" y="1789.005410758561" as="targetPoint" />
          </mxGeometry>
        </mxCell>
        <mxCell id="DZu1GaJRUpWl5_9RTm3t-117" value="&lt;span style=&quot;color: rgb(32, 33, 36); font-family: inherit; text-align: left; background-color: initial;&quot;&gt;&lt;font style=&quot;font-size: 19px;&quot;&gt;create new user&lt;/font&gt;&lt;/span&gt;" style="ellipse;whiteSpace=wrap;html=1;fillColor=#dae8fc;strokeColor=#6c8ebf;" parent="1" vertex="1">
          <mxGeometry x="94.48399999999981" y="1878.6039999999994" width="251.53" height="129.05" as="geometry" />
        </mxCell>
        <mxCell id="DZu1GaJRUpWl5_9RTm3t-118" value="&lt;span style=&quot;color: rgb(32, 33, 36); font-size: 19px; text-align: left;&quot;&gt;create&amp;nbsp;&lt;/span&gt;&lt;span style=&quot;color: rgb(32, 33, 36); font-family: inherit; text-align: left; background-color: initial;&quot;&gt;&lt;font style=&quot;font-size: 19px;&quot;&gt;new group&amp;nbsp;&lt;/font&gt;&lt;/span&gt;" style="ellipse;whiteSpace=wrap;html=1;fillColor=#dae8fc;strokeColor=#6c8ebf;" parent="1" vertex="1">
          <mxGeometry x="390.20099999999985" y="1992.1209999999992" width="251.53" height="129.05" as="geometry" />
        </mxCell>
        <mxCell id="DZu1GaJRUpWl5_9RTm3t-119" value="&lt;span style=&quot;font-size: 10px;&quot;&gt;include&lt;/span&gt;" style="endArrow=open;endSize=12;dashed=1;html=1;rounded=0;fontSize=21;entryX=1;entryY=0.5;entryDx=0;entryDy=0;" parent="1" source="DZu1GaJRUpWl5_9RTm3t-114" target="DZu1GaJRUpWl5_9RTm3t-117" edge="1">
          <mxGeometry width="160" relative="1" as="geometry">
            <mxPoint x="599.9015164863471" y="1786.576126527706" as="sourcePoint" />
            <mxPoint x="405.07799999999986" y="1781.0529999999994" as="targetPoint" />
          </mxGeometry>
        </mxCell>
        <mxCell id="DZu1GaJRUpWl5_9RTm3t-120" value="&lt;pre style=&quot;unicode-bidi: isolate; font-size: 28px; line-height: 36px; border: none; padding: 2px 0.14em 2px 0px; position: relative; margin-top: -2px; margin-bottom: -2px; resize: none; font-family: inherit; overflow: hidden; width: 270px; overflow-wrap: break-word; color: rgb(32, 33, 36);&quot; dir=&quot;ltr&quot; id=&quot;tw-target-text&quot; data-placeholder=&quot;Перевод&quot; class=&quot;tw-data-text tw-text-large tw-ta&quot;&gt;&lt;span style=&quot;font-size: 20px;&quot; lang=&quot;en&quot; class=&quot;Y2IQFc&quot;&gt;split into subgroups&lt;/span&gt;&lt;/pre&gt;" style="ellipse;whiteSpace=wrap;html=1;align=center;fillColor=#dae8fc;strokeColor=#6c8ebf;" parent="1" vertex="1">
          <mxGeometry x="90.54799999999986" y="2059.9179999999988" width="251.53" height="129.05" as="geometry" />
        </mxCell>
        <mxCell id="DZu1GaJRUpWl5_9RTm3t-121" value="&lt;span style=&quot;font-size: 10px;&quot;&gt;include&lt;/span&gt;" style="endArrow=open;endSize=12;dashed=1;html=1;rounded=0;fontSize=21;exitX=0;exitY=0;exitDx=0;exitDy=0;entryX=1;entryY=0;entryDx=0;entryDy=0;" parent="1" source="DZu1GaJRUpWl5_9RTm3t-118" target="DZu1GaJRUpWl5_9RTm3t-120" edge="1">
          <mxGeometry width="160" relative="1" as="geometry">
            <mxPoint x="643.201516486347" y="1850.3418734722932" as="sourcePoint" />
            <mxPoint x="581.7979999999997" y="2025.1529999999989" as="targetPoint" />
          </mxGeometry>
        </mxCell>
        <mxCell id="DZu1GaJRUpWl5_9RTm3t-122" value="&lt;span style=&quot;font-size: 10px;&quot;&gt;include&lt;/span&gt;" style="endArrow=open;endSize=12;dashed=1;html=1;rounded=0;fontSize=21;entryX=1;entryY=0;entryDx=0;entryDy=0;" parent="1" source="DZu1GaJRUpWl5_9RTm3t-114" target="DZu1GaJRUpWl5_9RTm3t-123" edge="1">
          <mxGeometry width="160" relative="1" as="geometry">
            <mxPoint x="642.8149034959785" y="1850.142973690727" as="sourcePoint" />
            <mxPoint x="523.1879999999998" y="1914.912999999999" as="targetPoint" />
          </mxGeometry>
        </mxCell>
        <mxCell id="DZu1GaJRUpWl5_9RTm3t-123" value="&lt;div style=&quot;text-align: left;&quot;&gt;&lt;span style=&quot;background-color: initial; font-size: 19px;&quot;&gt;&lt;font color=&quot;#202124&quot;&gt;add new user in group&lt;/font&gt;&lt;/span&gt;&lt;/div&gt;" style="ellipse;whiteSpace=wrap;html=1;fillColor=#dae8fc;strokeColor=#6c8ebf;" parent="1" vertex="1">
          <mxGeometry x="220.4679999999999" y="2200.7879999999996" width="251.53" height="129.05" as="geometry" />
        </mxCell>
        <mxCell id="DZu1GaJRUpWl5_9RTm3t-124" value="&lt;div style=&quot;text-align: left;&quot;&gt;&lt;span style=&quot;background-color: initial; font-size: 19px;&quot;&gt;&lt;font color=&quot;#202124&quot;&gt;add new user in subgroup&lt;/font&gt;&lt;/span&gt;&lt;/div&gt;" style="ellipse;whiteSpace=wrap;html=1;fillColor=#dae8fc;strokeColor=#6c8ebf;" parent="1" vertex="1">
          <mxGeometry x="78.7449999999999" y="2413.3849999999984" width="251.53" height="129.05" as="geometry" />
        </mxCell>
        <mxCell id="DZu1GaJRUpWl5_9RTm3t-125" value="&lt;span style=&quot;font-size: 10px;&quot;&gt;include&lt;/span&gt;" style="endArrow=open;endSize=12;dashed=1;html=1;rounded=0;fontSize=21;exitX=0.5;exitY=1;exitDx=0;exitDy=0;entryX=0.5;entryY=0;entryDx=0;entryDy=0;" parent="1" source="DZu1GaJRUpWl5_9RTm3t-123" target="DZu1GaJRUpWl5_9RTm3t-124" edge="1">
          <mxGeometry width="160" relative="1" as="geometry">
            <mxPoint x="646.7519034959784" y="1854.0799736907275" as="sourcePoint" />
            <mxPoint x="594.2699999999996" y="2039.3649999999993" as="targetPoint" />
          </mxGeometry>
        </mxCell>
        <mxCell id="DZu1GaJRUpWl5_9RTm3t-126" value="&lt;span style=&quot;font-size: 10px;&quot;&gt;include&lt;/span&gt;" style="endArrow=open;endSize=12;dashed=1;html=1;rounded=0;fontSize=21;exitX=0.301;exitY=0.982;exitDx=0;exitDy=0;entryX=0.5;entryY=0;entryDx=0;entryDy=0;exitPerimeter=0;" parent="1" source="DZu1GaJRUpWl5_9RTm3t-114" target="DZu1GaJRUpWl5_9RTm3t-127" edge="1">
          <mxGeometry width="160" relative="1" as="geometry">
            <mxPoint x="741.2319034959784" y="2019.679973690727" as="sourcePoint" />
            <mxPoint x="621.6049999999998" y="2084.449999999999" as="targetPoint" />
          </mxGeometry>
        </mxCell>
        <mxCell id="DZu1GaJRUpWl5_9RTm3t-127" value="&lt;div style=&quot;text-align: left;&quot;&gt;&lt;span style=&quot;background-color: initial; font-size: 19px;&quot;&gt;&lt;font color=&quot;#202124&quot;&gt;delete user from group&lt;/font&gt;&lt;/span&gt;&lt;/div&gt;" style="ellipse;whiteSpace=wrap;html=1;fillColor=#dae8fc;strokeColor=#6c8ebf;" parent="1" vertex="1">
          <mxGeometry x="393.7049999999999" y="2370.0749999999985" width="251.53" height="129.05" as="geometry" />
        </mxCell>
        <mxCell id="DZu1GaJRUpWl5_9RTm3t-128" value="&lt;div style=&quot;text-align: left;&quot;&gt;&lt;span style=&quot;background-color: initial; font-size: 19px;&quot;&gt;&lt;font color=&quot;#202124&quot;&gt;delete user from subgroup&lt;/font&gt;&lt;/span&gt;&lt;/div&gt;" style="ellipse;whiteSpace=wrap;html=1;fillColor=#dae8fc;strokeColor=#6c8ebf;" parent="1" vertex="1">
          <mxGeometry x="244.09199999999993" y="2523.6219999999985" width="251.53" height="129.05" as="geometry" />
        </mxCell>
        <mxCell id="DZu1GaJRUpWl5_9RTm3t-129" value="&lt;span style=&quot;font-size: 10px;&quot;&gt;include&lt;/span&gt;" style="endArrow=open;endSize=12;dashed=1;html=1;rounded=0;fontSize=21;exitX=0.5;exitY=1;exitDx=0;exitDy=0;entryX=0.5;entryY=0;entryDx=0;entryDy=0;" parent="1" source="DZu1GaJRUpWl5_9RTm3t-127" target="DZu1GaJRUpWl5_9RTm3t-128" edge="1">
          <mxGeometry width="160" relative="1" as="geometry">
            <mxPoint x="745.1689034959784" y="2023.6169736907273" as="sourcePoint" />
            <mxPoint x="692.6869999999997" y="2208.901999999999" as="targetPoint" />
          </mxGeometry>
        </mxCell>
        <mxCell id="DZu1GaJRUpWl5_9RTm3t-130" value="&lt;span style=&quot;font-size: 10px;&quot;&gt;include&lt;/span&gt;" style="endArrow=open;endSize=12;dashed=1;html=1;rounded=0;fontSize=21;entryX=0;entryY=0;entryDx=0;entryDy=0;" parent="1" source="DZu1GaJRUpWl5_9RTm3t-114" target="DZu1GaJRUpWl5_9RTm3t-131" edge="1">
          <mxGeometry width="160" relative="1" as="geometry">
            <mxPoint x="682.0045299999998" y="1866.8810999999996" as="sourcePoint" />
            <mxPoint x="562.7670000000002" y="2197.101999999999" as="targetPoint" />
          </mxGeometry>
        </mxCell>
        <mxCell id="DZu1GaJRUpWl5_9RTm3t-131" value="&lt;div style=&quot;text-align: left;&quot;&gt;&lt;span style=&quot;background-color: initial; font-size: 19px;&quot;&gt;&lt;font color=&quot;#202124&quot;&gt;manage roles&amp;nbsp;&lt;/font&gt;&lt;/span&gt;&lt;/div&gt;" style="ellipse;whiteSpace=wrap;html=1;fillColor=#dae8fc;strokeColor=#6c8ebf;" parent="1" vertex="1">
          <mxGeometry x="625.982" y="2507.871999999999" width="251.53" height="129.05" as="geometry" />
        </mxCell>
        <mxCell id="DZu1GaJRUpWl5_9RTm3t-132" value="&lt;span style=&quot;font-size: 10px;&quot;&gt;include&lt;/span&gt;" style="endArrow=open;endSize=12;dashed=1;html=1;rounded=0;fontSize=21;exitX=0.5;exitY=1;exitDx=0;exitDy=0;entryX=0.5;entryY=0;entryDx=0;entryDy=0;" parent="1" source="DZu1GaJRUpWl5_9RTm3t-114" target="DZu1GaJRUpWl5_9RTm3t-133" edge="1">
          <mxGeometry width="160" relative="1" as="geometry">
            <mxPoint x="744.0919999999999" y="1881.8869999999993" as="sourcePoint" />
            <mxPoint x="895.1440000000002" y="2219.688999999999" as="targetPoint" />
          </mxGeometry>
        </mxCell>
        <mxCell id="DZu1GaJRUpWl5_9RTm3t-133" value="&lt;span style=&quot;color: rgb(32, 33, 36); font-size: 19px; text-align: left;&quot;&gt;delete&amp;nbsp;&lt;/span&gt;&lt;span style=&quot;color: rgb(32, 33, 36); background-color: initial; font-size: 19px; text-align: left;&quot;&gt;user&amp;nbsp;&lt;/span&gt;&lt;span style=&quot;color: rgb(32, 33, 36); font-size: 19px; text-align: left;&quot;&gt;&lt;br&gt;&lt;/span&gt;" style="ellipse;whiteSpace=wrap;html=1;fillColor=#dae8fc;strokeColor=#6c8ebf;" parent="1" vertex="1">
          <mxGeometry x="755.8990000000001" y="2350.388999999999" width="251.53" height="129.05" as="geometry" />
        </mxCell>
        <mxCell id="DZu1GaJRUpWl5_9RTm3t-146" value="&lt;div style=&quot;text-align: left;&quot;&gt;&lt;span style=&quot;background-color: initial; font-size: 19px;&quot;&gt;&lt;font color=&quot;#202124&quot;&gt;add new course&lt;/font&gt;&lt;/span&gt;&lt;/div&gt;" style="ellipse;whiteSpace=wrap;html=1;fillColor=#fff2cc;strokeColor=#d6b656;" parent="1" vertex="1">
          <mxGeometry x="1357.8309999999997" y="1176.8209999999997" width="251.96" height="149.6" as="geometry" />
        </mxCell>
        <mxCell id="DZu1GaJRUpWl5_9RTm3t-147" value="&lt;span style=&quot;font-size: 10px;&quot;&gt;include&lt;/span&gt;" style="endArrow=open;endSize=12;dashed=1;html=1;rounded=0;fontSize=21;entryX=1;entryY=0.5;entryDx=0;entryDy=0;" parent="1" source="DZu1GaJRUpWl5_9RTm3t-58" target="DZu1GaJRUpWl5_9RTm3t-146" edge="1">
          <mxGeometry width="160" relative="1" as="geometry">
            <mxPoint x="1638.1170000000002" y="1186.067" as="sourcePoint" />
            <mxPoint x="1322.8209999999997" y="908.4509999999995" as="targetPoint" />
          </mxGeometry>
        </mxCell>
        <mxCell id="8DtnftpDKnu9Er9M48iU-2" value="&lt;font style=&quot;font-size: 60px;&quot;&gt;LMS&lt;/font&gt;" style="text;html=1;strokeColor=none;fillColor=none;align=center;verticalAlign=middle;whiteSpace=wrap;rounded=0;" parent="1" vertex="1">
          <mxGeometry x="2195.02" y="2618.11" width="60" height="30" as="geometry" />
        </mxCell>
        <mxCell id="bGR2ncDxH5QGCtKRdaTj-2" value="&lt;span style=&quot;color: rgb(32, 33, 36); font-family: arial, sans-serif; font-size: 20px; text-align: left; background-color: initial;&quot;&gt;view conversation&lt;/span&gt;" style="ellipse;whiteSpace=wrap;html=1;fillColor=#dae8fc;strokeColor=#6c8ebf;" parent="1" vertex="1">
          <mxGeometry x="350.39" y="513.3499999999999" width="228.78" height="107.17" as="geometry" />
        </mxCell>
        <mxCell id="bGR2ncDxH5QGCtKRdaTj-4" value="&lt;span style=&quot;color: rgb(32, 33, 36); font-family: arial, sans-serif; font-size: 20px; text-align: left; background-color: initial;&quot;&gt;write&amp;nbsp;&lt;/span&gt;&lt;span style=&quot;color: rgb(32, 33, 36); font-family: arial, sans-serif; font-size: 20px; text-align: left;&quot;&gt;message&lt;/span&gt;" style="ellipse;whiteSpace=wrap;html=1;fillColor=#dae8fc;strokeColor=#6c8ebf;" parent="1" vertex="1">
          <mxGeometry x="125.98" y="590.5500000000001" width="224.41" height="118.11" as="geometry" />
        </mxCell>
        <mxCell id="bGR2ncDxH5QGCtKRdaTj-5" value="&lt;span style=&quot;color: rgb(32, 33, 36); font-family: arial, sans-serif; font-size: 20px; text-align: left; background-color: initial;&quot;&gt;send message&lt;/span&gt;" style="ellipse;whiteSpace=wrap;html=1;fillColor=#dae8fc;strokeColor=#6c8ebf;" parent="1" vertex="1">
          <mxGeometry x="414.69999999999993" y="669.2799999999999" width="209.54" height="110.25" as="geometry" />
        </mxCell>
        <mxCell id="bGR2ncDxH5QGCtKRdaTj-6" value="&lt;font style=&quot;font-size: 10px;&quot;&gt;extend&lt;/font&gt;" style="html=1;verticalAlign=bottom;endArrow=open;dashed=1;endSize=8;rounded=0;fontSize=21;exitX=1.006;exitY=0.617;exitDx=0;exitDy=0;entryX=0;entryY=0.5;entryDx=0;entryDy=0;exitPerimeter=0;" parent="1" source="bGR2ncDxH5QGCtKRdaTj-2" target="DZu1GaJRUpWl5_9RTm3t-21" edge="1">
          <mxGeometry relative="1" as="geometry">
            <mxPoint x="578.7390000000005" y="507.87399999999997" as="sourcePoint" />
            <mxPoint x="519.6879999999996" y="685.9029999999998" as="targetPoint" />
          </mxGeometry>
        </mxCell>
        <mxCell id="bGR2ncDxH5QGCtKRdaTj-7" value="&lt;font style=&quot;font-size: 10px;&quot;&gt;extend&lt;/font&gt;" style="html=1;verticalAlign=bottom;endArrow=open;dashed=1;endSize=8;rounded=0;fontSize=21;exitX=1.006;exitY=0.584;exitDx=0;exitDy=0;exitPerimeter=0;entryX=0;entryY=0.5;entryDx=0;entryDy=0;" parent="1" source="bGR2ncDxH5QGCtKRdaTj-4" target="bGR2ncDxH5QGCtKRdaTj-2" edge="1">
          <mxGeometry relative="1" as="geometry">
            <mxPoint x="578.7360000000006" y="586.611" as="sourcePoint" />
            <mxPoint x="642" y="610" as="targetPoint" />
          </mxGeometry>
        </mxCell>
        <mxCell id="bGR2ncDxH5QGCtKRdaTj-9" value="&lt;span style=&quot;font-size: 10px;&quot;&gt;include&lt;/span&gt;" style="endArrow=open;endSize=12;dashed=1;html=1;rounded=0;fontSize=21;exitX=1.012;exitY=0.615;exitDx=0;exitDy=0;entryX=0;entryY=0.5;entryDx=0;entryDy=0;exitPerimeter=0;" parent="1" source="bGR2ncDxH5QGCtKRdaTj-4" target="bGR2ncDxH5QGCtKRdaTj-5" edge="1">
          <mxGeometry width="160" relative="1" as="geometry">
            <mxPoint x="647.6387964853618" y="1236.3311438005048" as="sourcePoint" />
            <mxPoint x="468.499" y="937.004" as="targetPoint" />
          </mxGeometry>
        </mxCell>
        <mxCell id="bGR2ncDxH5QGCtKRdaTj-24" value="&lt;font style=&quot;font-size: 18px;&quot;&gt;messenger&lt;/font&gt;" style="text;html=1;strokeColor=none;fillColor=none;align=center;verticalAlign=middle;whiteSpace=wrap;rounded=0;" parent="1" vertex="1">
          <mxGeometry x="129.92" y="472.44" width="60" height="30" as="geometry" />
        </mxCell>
        <mxCell id="bGR2ncDxH5QGCtKRdaTj-25" value="&lt;font style=&quot;font-size: 18px;&quot;&gt;messenger&lt;/font&gt;" style="text;html=1;strokeColor=none;fillColor=none;align=center;verticalAlign=middle;whiteSpace=wrap;rounded=0;" parent="1" vertex="1">
          <mxGeometry x="1334.647" y="566.927" width="60" height="30" as="geometry" />
        </mxCell>
        <mxCell id="bGR2ncDxH5QGCtKRdaTj-26" value="work check" style="text;html=1;strokeColor=none;fillColor=none;align=center;verticalAlign=middle;whiteSpace=wrap;rounded=0;fontSize=18;" parent="1" vertex="1">
          <mxGeometry x="1716.53" y="476.38" width="106.3" height="30" as="geometry" />
        </mxCell>
        <mxCell id="bGR2ncDxH5QGCtKRdaTj-27" value="Course&amp;nbsp;" style="text;html=1;strokeColor=none;fillColor=none;align=center;verticalAlign=middle;whiteSpace=wrap;rounded=0;fontSize=18;" parent="1" vertex="1">
          <mxGeometry x="1339" y="1091" width="153.12" height="30" as="geometry" />
        </mxCell>
        <mxCell id="bGR2ncDxH5QGCtKRdaTj-28" value="conference creating" style="text;html=1;strokeColor=none;fillColor=none;align=center;verticalAlign=middle;whiteSpace=wrap;rounded=0;fontSize=18;" parent="1" vertex="1">
          <mxGeometry x="1520.96" y="1999.13" width="169.66" height="30" as="geometry" />
        </mxCell>
        <mxCell id="bGR2ncDxH5QGCtKRdaTj-29" value="auth" style="text;html=1;strokeColor=none;fillColor=none;align=center;verticalAlign=middle;whiteSpace=wrap;rounded=0;fontSize=18;" parent="1" vertex="1">
          <mxGeometry x="1272" y="2335" width="60" height="30" as="geometry" />
        </mxCell>
        <mxCell id="bGR2ncDxH5QGCtKRdaTj-30" value="conference use&amp;nbsp;" style="text;html=1;strokeColor=none;fillColor=none;align=center;verticalAlign=middle;whiteSpace=wrap;rounded=0;fontSize=18;" parent="1" vertex="1">
          <mxGeometry x="82.68" y="1464.5600000000002" width="145.67" height="30" as="geometry" />
        </mxCell>
        <mxCell id="bGR2ncDxH5QGCtKRdaTj-31" value="&lt;span style=&quot;font-size: 14pt;&quot; lang=&quot;RU&quot;&gt;&amp;nbsp;Journal&lt;/span&gt;" style="text;html=1;strokeColor=none;fillColor=none;align=left;verticalAlign=middle;whiteSpace=wrap;rounded=0;fontSize=18;" parent="1" vertex="1">
          <mxGeometry x="700.79" y="1500" width="122.12" height="30" as="geometry" />
        </mxCell>
        <mxCell id="bGR2ncDxH5QGCtKRdaTj-32" value="user" style="text;html=1;strokeColor=none;fillColor=none;align=center;verticalAlign=middle;whiteSpace=wrap;rounded=0;fontFamily=Helvetica;fontSize=18;" parent="1" vertex="1">
          <mxGeometry x="86.61" y="1851.14" width="60" height="30" as="geometry" />
        </mxCell>
        <mxCell id="bGR2ncDxH5QGCtKRdaTj-33" value="attach" style="text;html=1;strokeColor=none;fillColor=none;align=center;verticalAlign=middle;whiteSpace=wrap;rounded=0;strokeWidth=3;fontFamily=Helvetica;fontSize=18;opacity=40;" parent="1" vertex="1">
          <mxGeometry x="86.61" y="968.5" width="60" height="30" as="geometry" />
        </mxCell>
        <mxCell id="4_GGVL15j5XoGi4zKDsS-1" value="&lt;span style=&quot;color: rgb(32, 33, 36); font-family: inherit; text-align: left; background-color: initial;&quot;&gt;&lt;font style=&quot;font-size: 19px;&quot;&gt;auto logout&lt;/font&gt;&lt;/span&gt;" style="ellipse;whiteSpace=wrap;html=1;fillColor=#dae8fc;strokeColor=#6c8ebf;" parent="1" vertex="1">
          <mxGeometry x="1374.0169999999996" y="2525.586999999999" width="271.21" height="125.12" as="geometry" />
        </mxCell>
        <mxCell id="jBjNyOZBL-4MSjgolxer-2" value="" style="endArrow=none;html=1;rounded=0;entryX=0;entryY=0;entryDx=0;entryDy=0;exitX=1;exitY=1;exitDx=0;exitDy=0;exitPerimeter=0;edgeStyle=orthogonalEdgeStyle;" edge="1" parent="1" source="DZu1GaJRUpWl5_9RTm3t-8" target="DZu1GaJRUpWl5_9RTm3t-7">
          <mxGeometry width="50" height="50" relative="1" as="geometry">
            <mxPoint x="1185" y="398" as="sourcePoint" />
            <mxPoint x="1360.9263299999998" y="2422.1523999999995" as="targetPoint" />
            <Array as="points">
              <mxPoint x="1181" y="2392" />
            </Array>
          </mxGeometry>
        </mxCell>
        <mxCell id="jBjNyOZBL-4MSjgolxer-3" value="" style="endArrow=none;html=1;rounded=0;entryX=0;entryY=0.5;entryDx=0;entryDy=0;exitX=1;exitY=1;exitDx=0;exitDy=0;exitPerimeter=0;edgeStyle=elbowEdgeStyle;" edge="1" parent="1" source="DZu1GaJRUpWl5_9RTm3t-8" target="4_GGVL15j5XoGi4zKDsS-1">
          <mxGeometry width="50" height="50" relative="1" as="geometry">
            <mxPoint x="1188.9709999999993" y="406.3910000000001" as="sourcePoint" />
            <mxPoint x="1364.86333" y="2426.0893999999994" as="targetPoint" />
            <Array as="points">
              <mxPoint x="1181" y="402" />
              <mxPoint x="1169" y="2465" />
              <mxPoint x="1185" y="2543" />
              <mxPoint x="1185" y="1882" />
            </Array>
          </mxGeometry>
        </mxCell>
      </root>
    </mxGraphModel>
  </diagram>
</mxfile>
